<svg xmlns="http://www.w3.org/2000/svg" xmlns:xlink="http://www.w3.org/1999/xlink" width="35" height="40" viewBox="0 0 35 40">
  <defs>
    <clipPath id="clip-path">
      <rect id="長方形_693" data-name="長方形 693" width="35" height="40" transform="translate(21 477)" fill="#fff" stroke="#707070" stroke-width="1"/>
    </clipPath>
  </defs>
  <g id="マスクグループ_248" data-name="マスクグループ 248" transform="translate(-21 -477)" clip-path="url(#clip-path)">
    <g id="k0015_6" transform="translate(24.076 477.042)" opacity="0.3">
      <path id="パス_3575" data-name="パス 3575" d="M186.644,2c-2.258,0-4.089.342-4.089.764s1.831.762,4.089.762,4.09-.342,4.09-.762S188.9,2,186.644,2Zm.191.895a9.873,9.873,0,0,1-3.211-.266,19.536,19.536,0,0,1,6.423,0A9.875,9.875,0,0,1,186.836,2.895Z" transform="translate(-172.569)"/>
      <path id="パス_3576" data-name="パス 3576" d="M32.441,92.507a4.094,4.094,0,0,1,3.688,3.687c.112,1.151-.248,2.463-.058,2.939a2.817,2.817,0,0,1-1.009,3.169.627.627,0,0,1-.431.433,1.988,1.988,0,0,1,1.641.518c.691.692,1.037,1.815,1.3,1.988a3.918,3.918,0,0,1,1.123,1.987s.519.432.432.864a7.014,7.014,0,0,1,1.412,1.873,3.786,3.786,0,0,1,1.037.374,1.507,1.507,0,0,0,.72-.057c.26-.057.462.317,0,.461a1.192,1.192,0,0,1-.633.086,1.217,1.217,0,0,1-.663.259c-.346,0-.721-.173-.692-.029s.692.114.72.317,0,.46-.4.316a3.7,3.7,0,0,0-.691-.259c-.229-.029-.951.029-1.123-.691,0,0-.4-.4-.346-.634a5.6,5.6,0,0,1-1.179-1.555,1.97,1.97,0,0,1-.433-.547c.058.375.461,1.469.489,2.017a3.251,3.251,0,0,1,.432,1.93,5.657,5.657,0,0,1,2.016,1.469,1.932,1.932,0,0,1,.865,1.7,1.815,1.815,0,0,1-.807,1.382,3.95,3.95,0,0,1-.893,1.325,3.692,3.692,0,0,1,.547,1.009,2.437,2.437,0,0,1,.548.921,5.87,5.87,0,0,1,1.845,1.3,2.421,2.421,0,0,1,.864.287.736.736,0,0,0,.806,0c.172-.115.662-.115.749.23a.591.591,0,0,1-.26.578s.173.461-.2.575c.085.143-.058.432-.663.375.259.173-.174.6-.519.375,0,0-.029.489-.432.373s-.345-.259-.432-.259-.087.2-.779-.058-.892-.6-1.267-.663a2.522,2.522,0,0,1-1.527-.634c-.2-.258-.143-.316-.143-.316a5.277,5.277,0,0,1-.375-.519,4.136,4.136,0,0,1-.489-.806s-.634.806-.75.951a1.559,1.559,0,0,0-.2.922,2.251,2.251,0,0,1-.029,1.643,2.821,2.821,0,0,0-.085.662c.028.172.4.691.229,1.008s-.517.548-.777-.086c-.2.258-.6.374-.748-.029-.261.144-.491.144-.548-.289-.4.144-.576.029-.6-.374-.23.029-.461-.144-.432-.546l.028-.4s.029-1.324.029-1.469-.375-1.585.519-2.017a3.012,3.012,0,0,1,.461-.547c.144-.087.2-1.154.374-1.383a2.863,2.863,0,0,1-.461-1.123c-.518-.317-.575-.923-.835-1.066s-2.275-.548-2.621-1.383c0,0-2.276-.288-2.65-1.931a1.887,1.887,0,0,1-.085-1.5,2.922,2.922,0,0,1,.316-1.643,6.456,6.456,0,0,1,.086-1.728,9.089,9.089,0,0,1-.95,1.325s-.2.49-.432.576-.922,1.959-1.238,2.247-.346,1.354-1.067,1.641a5.871,5.871,0,0,1-1.843.26c-.49.058-1.325.145-1.1-.6,0,0-.345,0-.69.029a7.06,7.06,0,0,1-1.067.058c-.289-.029-.575-.174-.432-.548-.173,0-.2-.316.116-.432a4.618,4.618,0,0,1,.488-.115c.145-.058.116-.058.317-.145s.691.029,1.067-.259a8.738,8.738,0,0,1,2.074-.893,4.053,4.053,0,0,1,.864-1.439c.318-.2.663-1.556.981-2.1s.288-1.786.6-2.65a10.063,10.063,0,0,1,.805-1.642,2.683,2.683,0,0,1,1.3-1.641,1.157,1.157,0,0,1,1.008-.086s-.273-.534-.4-.879-.285-.666-.712-.713a1.01,1.01,0,0,1-.809-.856c-.046-.381-.143-.57.333-.808a6.981,6.981,0,0,1,.236-3.485A4.486,4.486,0,0,1,32.441,92.507Z" transform="translate(-17.276 -86.177)"/>
      <path id="パス_3577" data-name="パス 3577" d="M145.229,59.979a.849.849,0,0,0,.871-.917c.289.042.579-.25.456-.792a.815.815,0,0,0,.455-1.209c.249.083.582-.543.457-.959s-.083.292-.539.333c0,0,.415-.917-.166-1.209a1,1,0,0,0-.5-1.126.966.966,0,0,0-.539-1.168.745.745,0,0,0-.7-1.042s-.083-.959-.954-.751c0,0-.124-.542-.787-.25-.373-.5-.663-.584-1.078-.208a1.141,1.141,0,0,0-1.822-.126.612.612,0,0,0-.789-.333c-.5.166-.331.5-.331.5s-1.159-.543-1.325.709c-.25-.459-.912.084-.746.625,0,0-.663-.041-.622.459-.083.041-.373,0-.415.416s-.165.834-.5.584-.5-.459-.374-.876-.746.5-.414,1.418a1.644,1.644,0,0,0,.539.626.722.722,0,0,0-.414.959c0,.126-.579.709,0,1.252.042.084-.331.542-.54.375s-.123.376.25.458a1.77,1.77,0,0,0,.621.042s-.373.709.291.917a.9.9,0,0,0,.827,1.043c.125.083.374.375.125.458s-.415.417.249.417.788-.25.788-.25-.042.5.7.5S144.028,61.146,145.229,59.979Z" transform="translate(-126.655 -45.853)"/>
      <path id="パス_3578" data-name="パス 3578" d="M11.436,240.138A10.349,10.349,0,0,1,8.8,237.07c-.432-.993-.994-1.944-2.506-.734s-2.981,2.2-4.149,2.2-.907,1.3-.086,1.425a2.226,2.226,0,0,0,1.254-.086s-.562.692,1.036.605c-.259.173-.172.734,1.209.518-.258.3,0,.648,1.211.346-.3.216-.217.691,1.037.3.087.13,0,.475.6.345l.606-.129s-.216.475.259.389a15.876,15.876,0,0,0,1.6-.692c.216-.044,1.341.821,1.816-.044S11.436,240.138,11.436,240.138Z" transform="translate(0 -222.632)"/>
    </g>
  </g>
</svg>
