<svg xmlns="http://www.w3.org/2000/svg" width="27.094" height="18.674" viewBox="0 0 27.094 18.674">
  <defs>
    <style>
      .cls-1 {
        fill: #4b4b4b;
      }

      .cls-2 {
        fill: none;
        stroke: #4b4b4b;
        stroke-width: 2px;
      }
    </style>
  </defs>
  <g id="グループ_544" data-name="グループ 544" transform="translate(-362.953 -509.663)">
    <g id="目のアイコン素材_その3" data-name="目のアイコン素材 その3" transform="translate(363.754 430.062)">
      <path id="パス_3430" data-name="パス 3430" class="cls-1" d="M25.5,88.3c-2.634-5.159-7.472-8.363-12.623-8.363S2.886,83.142.25,88.3l-.25.49.25.49c2.636,5.159,7.473,8.363,12.623,8.363s9.988-3.2,12.623-8.363l.25-.49Zm-12.623,7.19c-4.24,0-8.11-2.494-10.444-6.7,2.334-4.206,6.2-6.7,10.444-6.7s8.111,2.494,10.444,6.7C20.984,93,17.115,95.491,12.873,95.491Z" transform="translate(0 0)"/>
      <path id="パス_3431" data-name="パス 3431" class="cls-1" d="M157.706,153.686a5.2,5.2,0,1,0,5.2,5.2A5.2,5.2,0,0,0,157.706,153.686Zm0,7.5a2.275,2.275,0,0,1-2.139-3.093l1.9.742-.8-1.972a2.287,2.287,0,1,1,1.04,4.323Z" transform="translate(-144.833 -70.04)"/>
    </g>
    <line id="線_28" data-name="線 28" class="cls-2" x2="26" y2="17" transform="translate(363.5 510.5)"/>
  </g>
</svg>
