<svg xmlns="http://www.w3.org/2000/svg" width="16.742" height="19.924" viewBox="0 0 16.742 19.924">
  <defs>
    <style>
      .cls-1 {
        fill: #4b4b4b;
      }
    </style>
  </defs>
  <g id="書類複製" transform="translate(-40.89)">
    <rect id="長方形_542" data-name="長方形 542" class="cls-1" width="7.564" height="0.723" transform="translate(43.804 13.055)"/>
    <rect id="長方形_543" data-name="長方形 543" class="cls-1" width="7.564" height="0.721" transform="translate(43.804 10.126)"/>
    <rect id="長方形_544" data-name="長方形 544" class="cls-1" width="7.564" height="0.723" transform="translate(43.804 7.194)"/>
    <rect id="長方形_545" data-name="長方形 545" class="cls-1" width="3.564" height="0.723" transform="translate(47.805 4.264)"/>
    <path id="パス_3432" data-name="パス 3432" class="cls-1" d="M54.285,15.417V1.542a1.482,1.482,0,0,0-.023-.263A1.544,1.544,0,0,0,52.741,0H46.486a1.691,1.691,0,0,0-1.2.5l-3.9,3.9a1.7,1.7,0,0,0-.5,1.2v9.821a1.546,1.546,0,0,0,1.544,1.541H52.741A1.545,1.545,0,0,0,54.285,15.417ZM45.939,1.071V4.537c0,.376-.146.521-.519.521H41.954ZM41.757,15.417V5.828h4.126a.836.836,0,0,0,.739-.455A.791.791,0,0,0,46.711,5V.867h6.03a.673.673,0,0,1,.621.411.647.647,0,0,1,.054.263V15.417a.676.676,0,0,1-.675.675H42.434A.678.678,0,0,1,41.757,15.417Z"/>
    <path id="パス_3433" data-name="パス 3433" class="cls-1" d="M138.8,76.2h-1.04l.053.867h.987a.674.674,0,0,1,.675.675V91.622a.676.676,0,0,1-.675.675H128.49a.678.678,0,0,1-.621-.412.692.692,0,0,1-.053-.263v-.6h-.867v.6a1.483,1.483,0,0,0,.023.263,1.546,1.546,0,0,0,1.519,1.278H138.8a1.543,1.543,0,0,0,1.542-1.541V77.747A1.542,1.542,0,0,0,138.8,76.2Z" transform="translate(-82.709 -73.24)"/>
  </g>
</svg>
