<svg xmlns="http://www.w3.org/2000/svg" xmlns:xlink="http://www.w3.org/1999/xlink" width="46" height="55" viewBox="0 0 46 55">
  <defs>
    <clipPath id="clip-path">
      <rect id="長方形_573" data-name="長方形 573" width="46" height="55" fill="#fff" stroke="#707070" stroke-width="1"/>
    </clipPath>
  </defs>
  <g id="マスクグループ_207" data-name="マスクグループ 207" clip-path="url(#clip-path)">
    <g id="k0733_2" transform="translate(8.917 -8.765)" opacity="0.3">
      <path id="パス_3384" data-name="パス 3384" d="M345.693,12.8s-2.37-6.627-4.739-9.086-2.782-1.71-2.885-1.175.824,1.283,2.061,1.5c-1.442,0-.618.962,1.133,1.5-2.164,0,.1,1.176,1.03,1.6-1.854-.213.412.855,1.03,1.283-1.442-.214-1.236.321-.309.641-.309.214.206.642.824.748C343.53,9.915,345.693,12.8,345.693,12.8Z" transform="translate(-336.24 -1.999)"/>
      <path id="パス_3385" data-name="パス 3385" d="M63.864,776.387" transform="translate(-33.091 -713.904)"/>
      <path id="パス_3386" data-name="パス 3386" d="M230.181,96.822a7.845,7.845,0,0,0,1.756-2.358c.351-.819.736-1.822.994-2.509a4.306,4.306,0,0,1-1.406-.591c-.823-.683.13-2.182,1.964-2.214a4.021,4.021,0,0,1,.2-.672c.412-1.069,2.679-.535,3.4-.321a3.67,3.67,0,0,1,1.751,1.818,20.814,20.814,0,0,0,.939,2.078,7.3,7.3,0,0,0,2.356,1.129c1.236.107,1.442.642.618,1.069-.744.385-1.235.427-3.193-.535l-.169-.079c.016.181.028.394.032.641a3.178,3.178,0,0,0,.25.833c.311.54.377.521-.078.637a.955.955,0,0,0-.277.139,2.648,2.648,0,0,1-1.544,2.308l-.48-.2s-.5.023-.721,1.069c-.092.43-2.576-1.925-2.576-1.925l-1.03.749v-.641l-1.236.534.515-1.069C231.834,97.137,230.181,96.822,230.181,96.822Z" transform="translate(-225.406 -80.908)"/>
      <path id="パス_3387" data-name="パス 3387" d="M1.383,197.014s14.743,7.714,15.65,8a7.11,7.11,0,0,0,6.208-1.306c.892-.79.643,2.355.329,3.483a.5.5,0,0,1-.626.313c-1.032-.18-4.1.183-6.893-1.6-.639-.407-14.9-8.537-14.9-8.537Z" transform="translate(11.79 -181.279)"/>
      <path id="パス_3388" data-name="パス 3388" d="M82.818,238.178c.806-.955,1.827-4.549,2.3-6.884a5.891,5.891,0,0,1,1.84-3.343,17.484,17.484,0,0,0,1.074-4.735c.153-2.07.459-4.219.459-4.219l-3.279-.3-.058-.835c-1.38.238-3.22-1.135-2.588-1.911s3.221-9.312,3.509-9.849a11.882,11.882,0,0,0,1.092-5.313,5.98,5.98,0,0,1,2.3-4.954l.074.341.444-.64s3.969,2.566,3.854,2.805a7.971,7.971,0,0,0-.173,1.433s.52,1.02,1.088,2.3a23.426,23.426,0,0,0,2.1,1.722c.575.319,1-2.188,1-2.188l-.268-1.194a.6.6,0,0,1,.45-.289,1.615,1.615,0,0,1-.021-.366c.045-.473.045-1.277.045-1.277s-.228-.662.045-.852.547-.189.683.047c.5-.236.728-.472,1-.189l.273.284s.683-.189.82.1a.357.357,0,0,1-.182.52s.365-.047.456.142a.611.611,0,0,1,0,.426s-.182.142-.319.993a3.258,3.258,0,0,1-.355.98c.23.225.275.427.093.521a1.256,1.256,0,0,0-.537.637s-.019.074-.049.2l.432-.279s.215-.571.562-.607l.085-.646a2.225,2.225,0,0,1,.106-1.257c.264-.546.526-.874.737-.655s-.052.71-.052.71a1.586,1.586,0,0,1,.842-.437.6.6,0,0,1,.632.382.583.583,0,0,1,.579-.109.625.625,0,0,1,.473.656v.273a.453.453,0,0,1,.474.327c.158.382-.158,1.093-.737,1.693a6.214,6.214,0,0,1-1.409.932,2.438,2.438,0,0,1,.086.847,3.98,3.98,0,0,0-1.073,0c-.079,0-1.7,1.865-2.843,3.094a2.319,2.319,0,0,1-.647,1.283,3.252,3.252,0,0,1-1.687.119l-.466-.288c-.08,1.573-.108,3.332-.108,3.332l.288,2.09s2.013,5.134,2.473,7.163,1.381,3.94,1.611,5.432a2.557,2.557,0,0,1-.057.836,34.145,34.145,0,0,1,1.9,5.254c.689,2.686,2.243,7.163,3.048,7.521s2.7,1.552,3.566,1.432,1.783-.776,1.668-1.671-.69-.955-.863-.6.23.418-.173.358-.057-.537.115-.716a.824.824,0,0,1,.92-.119c.345.179.518,1.373.518,1.611s-.4,1.85-1.323,2.149a4.977,4.977,0,0,1-3.106.06,4.959,4.959,0,0,0-2.646-.06c-.518.119-1.5.239-1.669-.418a12.979,12.979,0,0,1-.114-2.388s-3.279-4.6-3.969-7.044c-.5-1.769-.921-4.358-.921-4.358l-3.592-4.68c-1.426,2.609-3.542,6.473-3.694,6.709-.231.358-4.832,9.511-4.832,9.511l2.071,2.387a2.5,2.5,0,0,0,1.381.837c.806.119,1.5-1.552,1.036-1.791s-.806-.358-.23-.6,1.15.6.919,1.552-.344,2.03-2.3,2.03-3.1-1.091-3.8-1.314A11.511,11.511,0,0,1,82.052,242C80.977,241.521,82.013,239.132,82.818,238.178Z" transform="translate(-81.591 -179.92)"/>
    </g>
  </g>
</svg>
