<svg xmlns="http://www.w3.org/2000/svg" width="30.79" height="54.136" viewBox="0 0 30.79 54.136">
  <g id="k0008_9" transform="translate(-1.053 -1.998)" opacity="0.29">
    <path id="パス_3389" data-name="パス 3389" d="M31.836,26.434c-.074-.276-.224-.414-.969-.828A17.657,17.657,0,0,0,28.7,24.5c-.949-.293-4.176-3.313-5.966-4a36.456,36.456,0,0,0-4.1-3.516,1.821,1.821,0,0,0-.058-1.38c-.257-3.069-2.235-3.648-2.949-4.724s-.3-2.633-2.322-5.214A5.6,5.6,0,0,0,9.815,3.532c-.143-.7-.412-1.457-.746-1.524-.62-.124-1.473.975-1.473.975l-.686.163s-1.855-.809-2.2-.508c-.184.161-.026.994.225,1.753A5.268,5.268,0,0,0,2.028,7.931,1.516,1.516,0,0,0,1.209,9.94a2.373,2.373,0,0,0,1.833,1.316,4.213,4.213,0,0,0,.449.8,2.646,2.646,0,0,1,.16.241.85.85,0,0,1-.593.117,1.5,1.5,0,0,0,.688.065,1.266,1.266,0,0,1,.051.972c-.17.512-.409,1.093.6.9a.326.326,0,0,1,.424.322c-.044.205.2.473.686.341,0,0-.4.457.011.558a.4.4,0,0,1,.244.177.132.132,0,0,0-.111.038c-.184.179-.825.158-1.081.477s-.035.692-.19.849a.566.566,0,0,0-.082.637.817.817,0,0,0-.283.739c-.19.228-.1.338.036.551a7.186,7.186,0,0,0,1.223.93c.346.237.355.585.4,1.087A15.514,15.514,0,0,1,5.124,23.2a2.435,2.435,0,0,0,.41,2.033c.316.324.509.739,1.04.611.85-.138,3.019-2.215,4.086-3.361a3.624,3.624,0,0,0,.774,1.064c.529.447,1.13.413,1.726,3.04S9,31.88,7.016,35.1l.556.7a27.311,27.311,0,0,0-2.425,3.008c-.117.433,1.113,1.407,3.19,2,2.034.581,3.9.024,5.238.507.054.5.11,1.03.166,1.556.274,2.558,1.374,7.857-2.4,7.859-3.2,0-1.873,3.285.526,2.933a9.828,9.828,0,0,0,4.38-1.457c.969-.453.555-2.535.555-2.535s.35-5.015.495-6.122c.033-.248.156-.726.318-1.35.112.011.225.02.337.029l.54,2.561c.549,2.607,2.236,7.959-1.649,8.3-3.293.289-1.583,3.547.848,2.97a10.008,10.008,0,0,0,4.352-1.892c.95-.554.306-2.657.306-2.657s-.165-5.19-.133-6.342c.014-.505.3-1.949.507-3.656,1.524-.356,3.106-.616,3.9-.283,1.229.514,3.86-1.411,4.854-2.332s-5.75-7.818-9.136-10.209q-.21-.149-.4-.307a13.008,13.008,0,0,0,1.578-.882c.448-.355-.686-2.1-1.25-2.643-.506-.49-1.377.476-2.1,1.247-.9-1.832-1.163-3.988-1.882-6a26.923,26.923,0,0,0,2.81,1.9c.895.414,4.474,2.83,5,3.175a1.962,1.962,0,0,1,.671,1.45,2.331,2.331,0,0,0,.447,1.45c.373.345.746.276.671-.207s-.148-.9-.148-.9.074-.483.372-.276A4.387,4.387,0,0,1,29.152,28.3c.15.483,1.119.69.895-.138.373.345.6.69.895.414a.491.491,0,0,0,.074-.621s.6,0,.447-.414a4.043,4.043,0,0,0-.522-1.242C31.389,26.641,31.911,26.71,31.836,26.434ZM7.569,22c-.033-.6-.089-1.135-.127-1.343a5.669,5.669,0,0,1,.125-1.6c.123-.7-.675-1.639-.943-2.067s-.515-.379-.576-.112.238.448.02.474-.655-.544-.765-.73,0,0,.438-.275a.419.419,0,0,0,.2-.263c.156.238.442.412,1.393.136,1.621-.47,2.733-.765,3.249.076-.1.429-.3,1.292-.438,2.207C9.583,19.268,8.3,21,7.569,22Zm14.47,3.405c.047.361-.77,1.014-1.43,1.479-.067-.1-.133-.209-.194-.316C20.983,25.969,21.979,24.939,22.039,25.406Z" transform="translate(0)" fill="#040000"/>
  </g>
</svg>
