<svg xmlns="http://www.w3.org/2000/svg" width="41" height="54.138" viewBox="0 0 41 54.138">
  <g id="k0754_1" opacity="0.3">
    <path id="パス_3373" data-name="パス 3373" d="M329.032,441.666c.087-.148.315-.565.634-1.147l-.04-.024a.028.028,0,0,1-.01-.038l.35-.6a.029.029,0,0,1,.039-.011l.025.014c.438-.79.978-1.754,1.545-2.725s1.17-1.984,1.707-2.873l-.081-.047a.028.028,0,0,1-.01-.038l.35-.6a.028.028,0,0,1,.038-.01l.09.053c.763-1.26,1.332-2.182,1.4-2.294.178-.3.363-.482.637-.323a6.079,6.079,0,0,0,.555.446c.3.178.2-.129.989.332l.283.166.08-.138a.028.028,0,0,1,.038-.01l.925.54a.028.028,0,0,1,.01.038l-.08.138,1.419.828c.054.032.106.059.155.085l3.026-5.186-.048-.028a.029.029,0,0,1-.01-.039l.078-.133a.028.028,0,0,1,.039-.01l.047.028,2.523-4.324-.048-.027a.031.031,0,0,1,0-.043l.58-.994a.046.046,0,0,1,.019-.017.346.346,0,0,1,.445-.111.353.353,0,0,1,.1.438.049.049,0,0,1,0,.019l-.58.994c-.011.017-.028.025-.039.017l-.048-.027-2.522,4.323.027.016a.028.028,0,0,1,.01.039l-.078.133a.028.028,0,0,1-.039.01l-.027-.015-3.018,5.173c.091.072.115.151.035.289-.5.851-6.636,11.376-7.026,12.044a.679.679,0,0,1-.506.387.627.627,0,0,1-.081.386.634.634,0,1,1-1.095-.639.626.626,0,0,1,.122-.146l-2.3-1.34a.743.743,0,0,0-.539.3c-.141.241-.467.082-.312-.182l.27-.464c-.345-.234-.128-.313-.408-.476-.3-.177-.175.02-.57-.21C327.92,443.5,328.536,442.517,329.032,441.666Z" transform="translate(-328.07 -393.901)" fill="#040000"/>
    <path id="パス_3374" data-name="パス 3374" d="M2.941,50.117a7.555,7.555,0,0,1,1.015-.723c.2-.145.443-1.311.791-1.252s.62-3.426,1.258-4.569,2.669-2.59,2.938-3.394c.022-.065.044-.144.067-.228-.4-.186-.645-.32-.611-.343.14-.093,2.383-5.374,2.43-6.449.04-.906-.481-3.636.138-5.284-.182-.047-.291-.118-.325-.231-.14-.467.654-3.365.888-5.327a6.682,6.682,0,0,0,.021-1.015,28.232,28.232,0,0,0-1,4.442C10.3,28.361,9.8,28.111,9.8,28.111a6.373,6.373,0,0,0-.312,1.433c0,.166-.167.206-.4.176a2.555,2.555,0,0,0-.124.685,5.291,5.291,0,0,1,.187,1.45,5,5,0,0,0-.13,1.236c.051.371-.144.494-.249.493s-.211-.16-.193-.39-.087-.248-.123-.178-.072.194-.3.1c-.072.141-.02.335-.337.281a1.768,1.768,0,0,1-.947-1.33c-.05-.583.43-1.111.644-1.481a2.985,2.985,0,0,0,.315-1.344,1.655,1.655,0,0,1-.21-.141c-.374-.312.125-1.059-.125-1.308s.81-5.919.935-6.293.768-2.751,1.433-4.8a10.564,10.564,0,0,1,1.18-2.878c0-.006,0-.014,0-.02.056-.235-.327-.281-.607-.919s.436-1.122.436-1.184-.062-.28.436-.732a5.377,5.377,0,0,1,2.041-.576,1.874,1.874,0,0,0,.125-.685.653.653,0,0,1-.95.28c.374-.031.639-.5.577-.67.016.171-.312.374-.421.312s-.358.125-.358.125c-.016-.234.093-.234.187-.39s.078-.421-.031-.39a.868.868,0,0,1-.826.763,1.017,1.017,0,0,0,.156-.935c-.156-.39.234-.919.218-1.246a.366.366,0,0,1-.5.218c.187-.109.233-.483.218-.872a10.611,10.611,0,0,1,.311-2.29A2.35,2.35,0,0,1,14.3,2.533a2.6,2.6,0,0,1,2.664-.265c1.04.446.872.779,1.2,1.075s1.076,1.168.437,2a.434.434,0,0,1-.016.246,1.87,1.87,0,0,0,.2,1.246c.265.28.5.561.249.748s-.467.327-.452.436.124.218.062.327.047.234-.047.343a.969.969,0,0,0-.047.639c.047.171-.109.421-.421.452s-.919.063-1.013.514.031.311-.156.483-.031.4.062.53a1.037,1.037,0,0,1,.265.5,3.556,3.556,0,0,0,.358,1.5,12.282,12.282,0,0,1,.748,4.627c-.041,1.616-.156,3.157-.214,4.3a.711.711,0,0,1,.293.138,6.921,6.921,0,0,0,1.371,1.1,4.276,4.276,0,0,1,1.531,1.268c-.038.212.183.328.233.485.08.039.14.067.166.077a6.448,6.448,0,0,0,.973.362,1.5,1.5,0,0,1,.77.457c.115.209.886.93.9,1.218a1.918,1.918,0,0,1-.148.656c-.048.212-.134.233-.241.168-.078.165-.084.55-.249.471-.131.133-.152.493-.257.51s-.322-.012-.261-.282.134-.417.081-.449a2.758,2.758,0,0,1-.261-.282L22.813,28a.858.858,0,0,0,.092.224c.1.2.179.284.17.5s-.141.354-.258.246-.126-.434-.209-.514-.137-.294-.225-.355a2.921,2.921,0,0,1-.767-.376c-.255-.219-.758-1.094-.982-1.363-.178.14-.336.228-.431.194-.268-.1-.541-.428-.687-.407a1.421,1.421,0,0,1-.964-.263c.052.619.488,1.441.224,1.662a1.605,1.605,0,0,1-.412.259,1.662,1.662,0,0,1,.319.769,24.209,24.209,0,0,0,.794,2.477c.187.654.561,2.01.841,2.991s.841,3.224.981,3.552.514,1.215.374,1.355a5.221,5.221,0,0,1-.654.3,3.694,3.694,0,0,0,.292.935,1.91,1.91,0,0,1,.466,1.467c-.106.68.533,1.408,1.28,4.329s1.575,4.6,1.931,4.871.319-.1.808.053.959.624,1.149.574-.219.485-.721.515-.605-.289-.5.03,1.895.623,2.521.6,1.7-.2,2.138-.236,1.075.757-.035,1.5-4.383,1.151-4.785,1.562a2.277,2.277,0,0,1-1.914.625c-.485-.219-.882-1.806-.9-2.556a7.593,7.593,0,0,1,.081-1.244c.016-.249-.736-1.171-.471-1.4s-2.263-2.645-2.746-3.863-.321-3.7-.774-4.421c-.25-.395-.858-1.1-1.41-1.913a7.516,7.516,0,0,1-.855.285c-.374.047-1.5-4.767-1.5-4.767s-2.01,5.234-2.15,5.328a3.387,3.387,0,0,1-.828-.263,1.544,1.544,0,0,1-.585.6c-.594.347-.755,1.3-2.547,3.727S6.4,49.716,6.418,50.165s.282.182.47.66.122,1.137.281,1.253-.514.137-.855-.233-.159-.652-.34-.37S6.584,52.938,7,53.41s1.43.67,1.827.86.524.994-.779,1.278c-2.482.541-4.253-1.982-4.825-2.033s-1.557-.574-1.694-1.088S2.368,50.6,2.941,50.117Z" transform="translate(10.035 -2.001)" fill="#040000"/>
  </g>
</svg>
