<svg xmlns="http://www.w3.org/2000/svg" xmlns:xlink="http://www.w3.org/1999/xlink" width="100" height="100" viewBox="0 0 100 100">
  <defs>
    <clipPath id="clip-path">
      <path id="パス_1331" data-name="パス 1331" d="M50,0A50,50,0,1,1,0,50,50,50,0,0,1,50,0Z" transform="translate(0)" fill="#fff" stroke="#8ae87c" stroke-width="27"/>
    </clipPath>
    <clipPath id="clip-path-2">
      <circle id="楕円形_245" data-name="楕円形 245" cx="49.979" cy="49.979" r="49.979" fill="#fff" stroke="#3abe27" stroke-width="10"/>
    </clipPath>
  </defs>
  <g id="グループ_535" data-name="グループ 535" transform="translate(14426 5367)">
    <g id="楕円形_244" data-name="楕円形 244" transform="translate(-14426 -5367)" fill="#fff" stroke="#3abe27" stroke-width="5">
      <circle cx="49.979" cy="49.979" r="49.979" stroke="none"/>
      <circle cx="49.979" cy="49.979" r="47.479" fill="none"/>
    </g>
    <path id="パス_1329" data-name="パス 1329" d="M95.321,26.042C88.9,45.044,70.213,59.261,48.2,59.261c-21.4,0-39.662-13.443-47.056-33.048Z" transform="translate(-14424.205 -5326.261)" fill="#3abe27"/>
    <g id="マスクグループ_131" data-name="マスクグループ 131" transform="translate(-14426 -5367)" clip-path="url(#clip-path)">
      <g id="k0130_13" transform="translate(-15.385 21.67)">
        <path id="パス_1330" data-name="パス 1330" d="M2.343,14.353a1.729,1.729,0,0,1,2.063-.539A3.592,3.592,0,0,1,5.483,15.34s2.283,1.5,3.59,2.154a16.688,16.688,0,0,0,6.281,1.613c.9,0,1.077-.807,1.884-1.165s1.257-1.526,0-1.706-2.152-1.345-2.781-1.795c-.9,0-1.885-1.526-1.706-2.422s1.257-1.435,1.8-3.23,2.51-2.781,2.781-3.051a3.66,3.66,0,0,0,.358-1.7c0-.361.27-.809.809-.451-.09-.447-.09-2.064.268-2.332s1.256.629,3.5,2.871c2.152.9,6.37,4.577,7,5.384a36.033,36.033,0,0,1,2.782,5.384c.988,3.229,14.267,7.9,17.5,15.164a20.322,20.322,0,0,1,2.011,6.864c2.429,2.64,7.956,4.56,12.636,4.72a11.315,11.315,0,0,1,2.413.273c2.233.622,4.294,2.076,4.114,2.937s-2.069.837-3.541,1.035a24.039,24.039,0,0,1-3.9.234c-3.466,0-7.753-2.109-11.462-2.705-.4,1.638-1.562,3.193-4.422,3.6-5.653.808-9.251-.1-11.934.18-4.309.448-5.2-1.886-3.319-2.872a3.926,3.926,0,0,1,1.524-.578,7.123,7.123,0,0,1-1.795-1.128c-.539-.627-.987-1.077-.987-1.077s-2.064,3.591-3.141,4.218-6.191.808-6.549-.09-.18-2.333,2.6-2.691c1.389-.18,1.255-4.489,1.255-5.386s-.358-5.743-.807-6.191-4.308-4.666-4.308-4.666c-3.589.088-9.241-4.217-10.5-5.294S4.317,19.558,3.06,18.03,1.8,14.98,2.343,14.353Zm31.945,29.7c.111.045.049.016-.118-.063A.589.589,0,0,0,34.288,44.054Z" transform="translate(-2.001 -1.205)" fill="#3abe27"/>
      </g>
    </g>
    <g id="マスクグループ_132" data-name="マスクグループ 132" transform="translate(-14426 -5367)" clip-path="url(#clip-path-2)">
      <g id="k0130_7" transform="translate(55.255 26.923)">
        <path id="パス_1332" data-name="パス 1332" d="M51.716,34.944c-.979-2.968-4.213-3.6-5.57-3.6a4.561,4.561,0,0,0-2.261.33c-.581.261.07,1.551,2.268,1.608s4.593,1.665,2.918,3.286c-1.133,1.1-3.6.778-5.456.3a11.849,11.849,0,0,0-1.089-5.642A29.776,29.776,0,0,0,35,22.268c-2.98-2.252-2.793-4.256-2.343-5.034a31.021,31.021,0,0,0,1.857-5.37c.126-.9,1.08-5.69.237-6.528s-1.679.328-2.646,1.044-1.419,1.1-1.806,1.039a5.31,5.31,0,0,1-1.879-1.48,34.378,34.378,0,0,1-.659-3.616c-.067-.776-.583-.452-.776-.062-.1.209-1.152,3.04-1.928,3.237-.7.178-.711,0-1.485.458a22.165,22.165,0,0,0-2.448,2.2c-.387.324-1.615.328-2,.718a1.631,1.631,0,0,0-.384,1.034c-.194.065-.965,1.554-.316,2.262.261.776.133,1.357.264,1.616a5.737,5.737,0,0,1-2.19,2.787c-.9.391-3.347,1.3-3.865.914s-1.523-6.924-2.43-7.633S7.227,7.76,5.16,8.284s-3.934,2.4-2.831,3.693a4.578,4.578,0,0,0,1.81.446c.583.063,1.81.124,1.81.124s1.614-.263,1.683.64.2,1.93.729,5.03,1.5,5.3,3.961,6.192,4.916,1.082,4.916,1.277,1.25,6.717,1.254,7.816-4.05,7-4.5,7.517a36.281,36.281,0,0,1-2.964,2.265c-.579.455-2.837,1.755-2.705,2.788-.126,1.165.393,1.485,1.3,1.483.583.708,1.939.38,2.2.315s1.035.254,1.551,0,3.67-3.562,4.25-4.08,6.059-5.325,6.508-6.62.772-1.036,1.356-.2,2.92,3.61,2.663,3.935a20.516,20.516,0,0,1-3.679,1.562c-.776.261-1.031,1.038-.9,1.3-.709.583-.449,1.1-.19,1.616a1.7,1.7,0,0,0,1.424.77c.648.193,1.165.513,1.681.19s.772-1.23,1.934-1.494,4.971-1.76,6.071-1.506a13.507,13.507,0,0,0,7.553-2.028,3.2,3.2,0,0,0,.879-1.168,22.7,22.7,0,0,0,3.189.055C48.953,40.06,52.694,37.915,51.716,34.944Z" transform="translate(-2.002 -1.85)" fill="#3abe27"/>
      </g>
    </g>
    <text id="イマヒマ村" transform="translate(-14408.521 -5283.333)" fill="#fff" font-size="13" font-family="YuGothic-Bold, Yu Gothic" font-weight="700"><tspan x="0" y="0">イマヒマ村</tspan></text>
  </g>
</svg>
