<svg xmlns="http://www.w3.org/2000/svg" width="26" height="21.8" viewBox="0 0 26 21.8">
  <g id="ターン_バックするの矢印アイコン素材_2" data-name="ターン・バックするの矢印アイコン素材 2" transform="translate(0 -1)">
    <path id="パス_3489" data-name="パス 3489" d="M16.943,41.349H2.477a.662.662,0,0,0-.662.662v3.155a.662.662,0,0,0,.662.662H17.011A4.479,4.479,0,0,1,21.5,49.776a4.332,4.332,0,0,1-1.119,3.362,4.381,4.381,0,0,1-3.232,1.432H10.144v-3.6a.5.5,0,0,0-.763-.418L.23,56.389a.5.5,0,0,0,0,.836l9.153,5.846a.5.5,0,0,0,.763-.418V59.047h7.006a8.859,8.859,0,0,0,8.843-9.19A9.036,9.036,0,0,0,16.943,41.349Z" transform="translate(0 -40.349)" fill="#fff"/>
  </g>
</svg>
