<svg xmlns="http://www.w3.org/2000/svg" width="21.397" height="21.397" viewBox="0 0 21.397 21.397">
  <g id="設定のレンチアイコン素材_4" data-name="設定のレンチアイコン素材 4" transform="translate(-0.002 0.001)">
    <path id="パス_3435" data-name="パス 3435" d="M20.607,4.526,18.155,6.977a.9.9,0,0,1-1.265,0L14.42,4.507a.9.9,0,0,1,0-1.265L16.874.791a.464.464,0,0,0-.4-.786,9.375,9.375,0,0,0-4.826,2.127c-1.106,1.106-.634,3.079-.263,4.135a1.249,1.249,0,0,1-.295,1.3L3.155,15.5A2.953,2.953,0,1,0,5.9,18.243l7.931-7.931a1.248,1.248,0,0,1,1.3-.295c1.056.37,3.029.843,4.135-.263a9.372,9.372,0,0,0,2.127-4.825A.464.464,0,0,0,20.607,4.526ZM2.214,17.7a1.049,1.049,0,1,1,0,1.484A1.049,1.049,0,0,1,2.214,17.7Z" transform="translate(0)" fill="#374149"/>
  </g>
</svg>
