<svg xmlns="http://www.w3.org/2000/svg" xmlns:xlink="http://www.w3.org/1999/xlink" width="53" height="40" viewBox="0 0 53 40">
  <defs>
    <clipPath id="clip-path">
      <rect id="長方形_707" data-name="長方形 707" width="53" height="40" transform="translate(15 343)" fill="#fff" stroke="#707070" stroke-width="1"/>
    </clipPath>
  </defs>
  <g id="マスクグループ_251" data-name="マスクグループ 251" transform="translate(-15 -343)" clip-path="url(#clip-path)">
    <g id="k0130_7" transform="translate(18.9 346.654)" opacity="0.3">
      <path id="パス_3581" data-name="パス 3581" d="M2.136,29.853c.829-2.511,3.565-3.05,4.713-3.046a3.859,3.859,0,0,1,1.913.279c.492.221-.059,1.313-1.919,1.361s-3.887,1.409-2.469,2.781c.959.927,3.044.659,4.616.253a10.026,10.026,0,0,1,.921-4.774,25.2,25.2,0,0,1,6.368-7.58c2.522-1.906,2.363-3.6,1.983-4.26a26.25,26.25,0,0,1-1.571-4.544c-.106-.766-.914-4.815-.2-5.524s1.421.278,2.239.884,1.2.933,1.529.879a4.493,4.493,0,0,0,1.59-1.253,29.09,29.09,0,0,0,.558-3.06c.056-.656.493-.382.656-.053.087.176.975,2.573,1.631,2.739.593.15.6,0,1.257.387a18.755,18.755,0,0,1,2.071,1.866c.327.274,1.367.278,1.693.608a1.38,1.38,0,0,1,.325.875c.164.055.817,1.315.268,1.914-.221.656-.113,1.148-.223,1.367a4.854,4.854,0,0,0,1.853,2.358c.764.331,2.832,1.1,3.271.773S36.5,9.226,37.264,8.626s2.518-1.775,4.267-1.332,3.329,2.034,2.4,3.125a3.874,3.874,0,0,1-1.532.378c-.493.054-1.532.1-1.532.1s-1.366-.223-1.424.542-.169,1.633-.617,4.256S37.55,20.181,35.47,20.94s-4.16.916-4.16,1.08-1.058,5.684-1.061,6.614,3.427,5.921,3.809,6.361a30.7,30.7,0,0,0,2.508,1.916c.49.385,2.4,1.485,2.289,2.359.106.986-.332,1.257-1.1,1.255-.493.6-1.641.322-1.86.267s-.876.215-1.312,0-3.106-3.014-3.6-3.452-5.127-4.506-5.507-5.6-.653-.876-1.147-.168-2.471,3.055-2.253,3.33a17.36,17.36,0,0,0,3.113,1.321c.656.221.872.878.762,1.1.6.493.38.93.16,1.367a1.439,1.439,0,0,1-1.205.651c-.548.163-.986.434-1.422.16s-.653-1.041-1.637-1.264-4.206-1.489-5.137-1.275a11.429,11.429,0,0,1-6.391-1.716,2.709,2.709,0,0,1-.744-.988,19.2,19.2,0,0,1-2.7.047C4.474,34.182,1.308,32.367,2.136,29.853Z" transform="translate(-2.002 -1.85)"/>
    </g>
  </g>
</svg>
