<svg xmlns="http://www.w3.org/2000/svg" width="30.578" height="32" viewBox="0 0 30.578 32">
  <g id="いい考えが浮かんだときのアイコン" transform="translate(-11.375)" opacity="0.3">
    <path id="パス_3684" data-name="パス 3684" d="M130.768,112l-2.1-4.446c.006-.133.01-.266.01-.4a10.122,10.122,0,1,0-16.565,7.809v3.578a.868.868,0,0,0,.531.8l8.383,3.557a.869.869,0,0,0,1.209-.8v-3.031a.869.869,0,0,1,.869-.87H127.4a.871.871,0,0,0,.871-.87v-2.613a.872.872,0,0,1,.488-.783l1.6-.776A.87.87,0,0,0,130.768,112Zm-12.137,3.807a1.147,1.147,0,0,1-1.01-.6h2.018A1.144,1.144,0,0,1,118.631,115.806Zm2.043-2.229a.447.447,0,0,0,0,.741.449.449,0,0,1-.449.448h-3.211a3.44,3.44,0,0,0-.447-1.189.447.447,0,0,0,0-.736.448.448,0,0,1,.447-.449h3.211a3.536,3.536,0,0,0,.449,1.186Zm.553-3.694c-.748.5-.814.863-.814,1.785h-3.584c0-.922-.068-1.29-.814-1.785a4.733,4.733,0,1,1,5.213,0Z" transform="translate(-90.995 -90.966)"/>
    <rect id="長方形_839" data-name="長方形 839" width="1.481" height="3.365" transform="translate(26.824)"/>
    <path id="パス_3685" data-name="パス 3685" d="M133.592,31.7l-1.283.74-1.684-2.915,1.283-.739Z" transform="translate(-111.797 -26.982)"/>
    <path id="パス_3686" data-name="パス 3686" d="M43.812,120.917l-.74,1.283-2.916-1.684.742-1.282Z" transform="translate(-26.982 -111.782)"/>
    <path id="パス_3687" data-name="パス 3687" d="M14.742,247.156v1.48H11.375l0-1.48Z" transform="translate(0 -231.709)"/>
    <path id="パス_3688" data-name="パス 3688" d="M445.07,119.234l.74,1.282L442.9,122.2l-.74-1.282Z" transform="translate(-403.857 -111.782)"/>
    <path id="パス_3689" data-name="パス 3689" d="M364.4,28.781l1.283.74L364,32.435l-1.281-.741Z" transform="translate(-329.385 -26.982)"/>
  </g>
</svg>
