<svg xmlns="http://www.w3.org/2000/svg" width="45.192" height="40.001" viewBox="0 0 45.192 40.001">
  <g id="k0086_0" transform="translate(0 0.001)" opacity="0.3">
    <path id="パス_3390" data-name="パス 3390" d="M31.439,36.894l-.608,2.025s5.942,3.106,10.262,2.836,5.617-4.592,5.617-4.592a1.27,1.27,0,0,0,.437-.405c.2-.405-.269-6.684-1.485-11.208s-3.825-10.263-5.918-11.68c-.01-.166-.2-.81-.743-.54-2.748-2.265-1.4-6.274-2.363-7.967-.34-.6-2.431-4.186-5.849-3.506A6.742,6.742,0,0,0,26.54,3.389a6.879,6.879,0,0,0-3.064,5.4c-.1,3.356,2.437,3.524,2.437,3.524s1.326.7.975,1.754c-.27.81.2.945.81.54.438.311.072.677.7.632-.081.322.145.631.387.551s.553.843,1.278.843,1.419-1.891,2.446-.83a4.794,4.794,0,0,1,.8,1.378,1.865,1.865,0,0,0-.543.533c-.135.338.811,1.62.811,1.62S33.3,21.1,33.142,22.49c-1,2.018-1.862,4.208-1.862,4.208L28.5,25.624c-.438-.627-1.873-2.481-3.518-2.5a1.633,1.633,0,0,0-.859-.744c-.607-.135-1.283-1.081-1.553-1.486-.074-.111-.158-.129-.236-.089L19.346,16.84s-1.688-.945-2.7.269L20.265,20.7a1.184,1.184,0,0,0,.01.33,2.467,2.467,0,0,0,.2,1.418,3.266,3.266,0,0,0,.244,1.182,2.259,2.259,0,0,0-.244.235c-1.485,1.688-8.709,11.344-10.465,12.491s-4.929,1.823-5.806,2.161a3.778,3.778,0,0,1-1.621.473.656.656,0,0,0-.27,1.215,5.436,5.436,0,0,0,1.891.608,17.148,17.148,0,0,1,3.038.135c.828.191,4,.5,4.978-.144a7.144,7.144,0,0,0,2.643.219c1.418-.2,3.133,1.3,5.293-.5,1.122-.935.54-2.971.54-2.971s.841-1.2,2.037-2.872l1.209-1.966C25.159,33.45,31.439,36.894,31.439,36.894Zm-9-14.652-.123-.087.067-.012C22.434,22.241,22.435,22.241,22.435,22.241ZM13.248,38.693h-.459a4.1,4.1,0,0,0-.077-.45s3.6-2.677,5.887-4.518c-.535,1.359-.872,2.289-.872,2.289S15.477,38.693,13.248,38.693Z" transform="translate(-2.001 -1.772)" fill="#040000"/>
  </g>
</svg>
