<svg xmlns="http://www.w3.org/2000/svg" xmlns:xlink="http://www.w3.org/1999/xlink" width="108" height="40" viewBox="0 0 108 40">
  <defs>
    <clipPath id="clip-path">
      <rect id="長方形_691" data-name="長方形 691" width="108" height="40" transform="translate(158 574)" fill="#fff" stroke="#707070" stroke-width="1"/>
    </clipPath>
  </defs>
  <g id="マスクグループ_246" data-name="マスクグループ 246" transform="translate(-158 -574)" clip-path="url(#clip-path)">
    <g id="k0205_0" transform="translate(168.632 576)" opacity="0.3">
      <path id="パス_3558" data-name="パス 3558" d="M599.579,143.4s-7.268,18.732-5,39.805a1.857,1.857,0,0,1-1.09.346l-.818-.086s-.273-10.754,0-17.171l-15.9-.694s-1.181,14.4-1.09,18.038h-.818l-.908-.347s.908-8.412,1.363-17.864l-1.908-.78.363-2.254,19.17.867a191.333,191.333,0,0,1,4.27-19.859Z" transform="translate(-500.91 -127.59)" fill="#040000"/>
      <path id="パス_3559" data-name="パス 3559" d="M2,138.722s7.268,18.732,5,39.8a1.853,1.853,0,0,0,1.09.347l.818-.086s.273-10.754,0-17.171l15.9-.693s1.181,14.4,1.09,18.037h.818l.909-.346s-.909-8.412-1.363-17.864l1.908-.781-.363-2.255-19.17.867a191.2,191.2,0,0,0-4.27-19.859Z" transform="translate(-9 -123.436)" fill="#040000"/>
      <g id="グループ_506" data-name="グループ 506" transform="translate(-1.82 0)">
        <path id="パス_3561" data-name="パス 3561" d="M76.929,38.442c-3.243.669-10.694,1.924-12.447-.084s-.351-7.028.263-8.2-.351-6.024-.439-8.869,1.682-7,1.682-7a.765.765,0,0,1-.129-.723c-.157-.012-.554-.462-.269-.735-.2.238.5.546.8.073-.389-.235.135-1.079.595-1.325s.663-.352.663-.352-.193-.076-.13-.244c.388.186.665-.8.453-1.4A9.277,9.277,0,0,1,66.757,5.6C66.585,3.173,69.358.753,72.6,1.36a4.356,4.356,0,0,1,4.6,3.557c.332,1.048-.849,1.465-.849,1.465s-.2.354-.158.452a4.03,4.03,0,0,0,.546,1.332c.128.2.153.392-.191.469s-.5.056-.458.187.181.226.049.4.148.26-.021.4-.155.534-.155.534.134.856-.664.815c-.589-.03-1.948-.2-2.042.066a4.753,4.753,0,0,0-.076,1.788s.857,1.61,1.383,1.862.351,1.171.175,1.506,1.14,2.76.613,4.183-1.841,8.618-1.14,9.455a1.877,1.877,0,0,0,1.665.669c1.14-.084,11.483-.335,12.271.753a3.786,3.786,0,0,1,.7,3.179c-.7,3.012-1.2,8.224-2.246,10.99a21.147,21.147,0,0,0-.8,6.694c.2.689,1.96,2.1,2.779,2.757s1.653,1.148,1.527,1.558-.53.963-2.094.746a13.159,13.159,0,0,1-4.595-2.155c-.572-.468-.539.123-.506.713s.017.757-.34.812-.207-.606-.271-.864a4.318,4.318,0,0,1-.242-2.12A11.543,11.543,0,0,1,83.03,50.7c.478-3.235.034-7.821.473-10.917.4-2.82-.088-2.845-.088-2.845Z" transform="translate(-61.632 -1.265)" fill="#040000"/>
        <path id="パス_3562" data-name="パス 3562" d="M126.5,154.631s.763,5.878.915,7.286c0,0,1.934-.048,2.952-.1s4.428-.632,4.886-.729,3.918-1.069,4.58-1.069a3.7,3.7,0,0,1,2.035.582c.2.292.356.875.152,1.069.051.243-.457.486-.763.486a5.767,5.767,0,0,1-.967.243,4.012,4.012,0,0,1-1.222.388c-.56.049-.56-.243-.56-.243l-1.984.049s-6.463,1.845-7.684,2.185-3.257.729-3.715.389-2.8-6.023-2.8-9.132S125.843,152.3,126.5,154.631Z" transform="translate(-113.492 -136.325)" fill="#040000"/>
        <path id="パス_3563" data-name="パス 3563" d="M157.911,166.876a21.85,21.85,0,0,0,3.766-.486c1.17-.389,1.222-.389,1.526-.631s1.171-2.234,1.883-2.526.763-.437,1.119-.243.306.437.1.68a.594.594,0,0,1-.1.825c.051.243.153.486-.051.729-.051.194.051.535-.1.631s-.713,1.118-1.527,1.215a6.372,6.372,0,0,0-1.832.583A44.274,44.274,0,0,1,157.5,169.5C156.893,169.5,155.112,167.555,157.911,166.876Z" transform="translate(-143.576 -144.926)" fill="#040000"/>
        <path id="パス_3564" data-name="パス 3564" d="M218.06,148.488a2.508,2.508,0,0,0,1-.779,6.765,6.765,0,0,0-.21-2.683,2.7,2.7,0,0,1-1.431-2.443l2.781-.217a2.63,2.63,0,0,1-.994,2.633,6.767,6.767,0,0,0,.251,2.681,2.556,2.556,0,0,0,1.119.612c.408.1-.416.225-1.244.267C218.149,148.673,217.673,148.646,218.06,148.488Z" transform="translate(-197.502 -126.675)" fill="#040000"/>
      </g>
      <g id="グループ_507" data-name="グループ 507" transform="translate(33.827 26.485)">
        <rect id="長方形_688" data-name="長方形 688" width="1.313" height="28.952" transform="translate(0 0.001)" fill="#040000"/>
        <rect id="長方形_689" data-name="長方形 689" width="1.313" height="28.952" transform="translate(27.586)" fill="#040000"/>
      </g>
      <rect id="長方形_690" data-name="長方形 690" width="35.566" height="1.365" transform="translate(30.585 25.803)" fill="#040000"/>
      <path id="パス_3565" data-name="パス 3565" d="M413.415,22.539a13,13,0,0,0-2.229-6.905,6.586,6.586,0,0,1-.088-.7c.018-.067-.262-.05-.262-.05l-.035-.418-.245.033s.053-.251.088-.384a14.089,14.089,0,0,0,1.505-2.239,3.872,3.872,0,0,0-.963-4.16c-.175-.785-1.313-1.687-3.431-1.955a9.073,9.073,0,0,0-3.973.435,2.78,2.78,0,0,1-1.172-.117,3.914,3.914,0,0,0,.28.668h-.07l-.07-.017c.07.568.753.835.7.9a1.477,1.477,0,0,0-.157.635,9.008,9.008,0,0,0-.385,1.571,1.247,1.247,0,0,0,.07.685,1.136,1.136,0,0,1-.07.5,8.494,8.494,0,0,1-.857.986c-.28.251-.368.685.087.785s.613.267.6.418-.193.268-.123.368.175.284.175.284-.175.25-.053.384a.744.744,0,0,1,.192.635c-.035.317-.262.718.455.819s1.925-.084,2.03.1a3.236,3.236,0,0,1,.088,1l-.671.568.047.579s-.747.8-.747,1.025-2.147,2.985-2.987,4.767a33,33,0,0,0-1.409,5.243c-.051-.021-.1-.042-.154-.062-1.481-.566-3.606.3-2.953,2.458-2.838-.113-6.954-.873-8.552.112-2.24,1.382-12.928,9.223-12.928,9.223s-2.007,1.291-2.147,1.291a2.837,2.837,0,0,1-.607-.223s-.093-.4-.326-.311-.84.579-1.26.579a19.03,19.03,0,0,1-2.614-.669c-.607-.178-2.147.624-1.914,1.2a9.078,9.078,0,0,0,2.707,2.9c.7.223,2.754.624,2.894.668s.327.713.654.8,2.147.535,2.427.579.98-.535,1.074-1.559a1.649,1.649,0,0,1,.654-1.337l1.26-.624.794.4,1.26-.98,1.213-.044s-3.21,8.222-2.977,8.4,2.427,1.425,2.427,1.425a10.449,10.449,0,0,1-.467,1.828c-.14.089-.56.178-.56.311s-.514,1.425-1.214,1.6-2.24.8-2.614.8a14.416,14.416,0,0,0-1.96-.133c-.374.089-1.074,1.559-.607,2.049s3.314.891,3.968.936,3.454.179,3.734.267a9.733,9.733,0,0,0,2.8-.088c.14-.179.747-.179.793-.8a11.051,11.051,0,0,0-.14-3.118c-.233-.313-.794-.758-.653-1.025a14.864,14.864,0,0,0,.467-1.471s.56.045.653-.134,1.857-9.869,2-10,1.727-2.318,1.914-2.54a5.7,5.7,0,0,1,2.287-.624c.467.045,15.45,2.9,18.25-.98,1.032-1.428,1.867-5.7,2.287-7.618S413.649,26.9,413.415,22.539Z" transform="translate(-317.881 -5.197)" fill="#040000"/>
    </g>
  </g>
</svg>
