<svg xmlns="http://www.w3.org/2000/svg" xmlns:xlink="http://www.w3.org/1999/xlink" width="16" height="16" viewBox="0 0 16 16">
  <defs>
    <clipPath id="clip-path">
      <path id="パス_1331" data-name="パス 1331" d="M8,0A8,8,0,1,1,0,8,8,8,0,0,1,8,0Z" transform="translate(0)" fill="#fff" stroke="#8ae87c" stroke-width="27"/>
    </clipPath>
    <clipPath id="clip-path-2">
      <circle id="楕円形_245" data-name="楕円形 245" cx="7.973" cy="7.973" r="7.973" fill="#fff" stroke="#3abe27" stroke-width="27"/>
    </clipPath>
  </defs>
  <g id="グループ_555" data-name="グループ 555" transform="translate(14426 5367)">
    <g id="楕円形_244" data-name="楕円形 244" transform="translate(-14426 -5367)" fill="#fff" stroke="#3abe27" stroke-width="1">
      <circle cx="7.973" cy="7.973" r="7.973" stroke="none"/>
      <circle cx="7.973" cy="7.973" r="7.473" fill="none"/>
    </g>
    <g id="マスクグループ_132" data-name="マスクグループ 132" transform="translate(-14426 -5367)" clip-path="url(#clip-path-2)">
      <g id="k0130_7" transform="translate(2.453 2.349)">
        <path id="パス_1332" data-name="パス 1332" d="M14.116,9.914a1.422,1.422,0,0,0-1.357-.877,1.111,1.111,0,0,0-.551.08c-.142.064.017.378.553.392s1.119.406.711.8c-.276.267-.877.19-1.329.073a2.887,2.887,0,0,0-.265-1.375,7.256,7.256,0,0,0-1.834-2.183c-.726-.549-.68-1.037-.571-1.227A7.559,7.559,0,0,0,9.924,4.29c.031-.22.263-1.387.058-1.591s-.409.08-.645.254-.346.269-.44.253a1.294,1.294,0,0,1-.458-.361,8.377,8.377,0,0,1-.161-.881c-.016-.189-.142-.11-.189-.015-.025.051-.281.741-.47.789-.171.043-.173,0-.362.112a5.4,5.4,0,0,0-.6.537c-.094.079-.394.08-.488.175a.4.4,0,0,0-.094.252c-.047.016-.235.379-.077.551.064.189.033.331.064.394a1.4,1.4,0,0,1-.534.679c-.22.1-.816.317-.942.223S4.221,3.974,4,3.8a1.543,1.543,0,0,0-1.229-.383c-.5.128-.959.586-.69.9a1.116,1.116,0,0,0,.441.109c.142.015.441.03.441.03s.393-.064.41.156.049.47.178,1.226.366,1.29.965,1.509,1.2.264,1.2.311.3,1.637.306,1.9a9.115,9.115,0,0,1-1.1,1.832,8.841,8.841,0,0,1-.722.552c-.141.111-.691.428-.659.679-.031.284.1.362.316.361.142.173.472.093.536.077s.252.062.378,0,.894-.868,1.036-.994a11.016,11.016,0,0,0,1.586-1.613c.109-.315.188-.252.33-.048s.712.88.649.959a5,5,0,0,1-.9.381c-.189.064-.251.253-.219.316-.173.142-.109.268-.046.394a.414.414,0,0,0,.347.188c.158.047.284.125.41.046s.188-.3.471-.364a6.58,6.58,0,0,1,1.479-.367,3.291,3.291,0,0,0,1.84-.494.78.78,0,0,0,.214-.285,5.531,5.531,0,0,0,.777.013C13.442,11.16,14.354,10.638,14.116,9.914Z" transform="translate(-2.002 -1.85)" fill="#3abe27"/>
      </g>
    </g>
  </g>
</svg>
