<svg xmlns="http://www.w3.org/2000/svg" width="36.266" height="35" viewBox="0 0 36.266 35">
  <g id="EXITのベクター素材1" transform="translate(0 -8.934)">
    <path id="パス_1358" data-name="パス 1358" d="M317.283,40.426a2.877,2.877,0,1,0-2.877-2.877A2.877,2.877,0,0,0,317.283,40.426Z" transform="translate(-292.136 -23.916)" fill="#4b4b4b"/>
    <path id="パス_1359" data-name="パス 1359" d="M245.841,139.826l-1.907-2.869a5.331,5.331,0,0,0-1.794-1.64l-3.741-2.095a3.171,3.171,0,0,0-1.855-.436l-1.79.243a2.664,2.664,0,0,0-1.7.951l-3.407,3.625-3.12,1.151a1.183,1.183,0,0,0-.721,1.461l.014.046a1.184,1.184,0,0,0,1.4.8l2.543-.587a5.319,5.319,0,0,0,1.776-.772l1.769-1.189.624,4.748a1.6,1.6,0,0,1-.2,1.007l-5.3,9.2a1.375,1.375,0,0,0,.5,1.874l.045.027a1.375,1.375,0,0,0,1.82-.4l5.919-8.467,1.794,3.58a2.655,2.655,0,0,0,.52.711l3.978,3.89a1.343,1.343,0,0,0,1.824.05l.064-.056a1.343,1.343,0,0,0,.114-1.908l-3.359-3.741-1.825-6.6-.006.006-.524-5.167,1.85.833,2.957,3.113a1.1,1.1,0,0,0,1.419.148l.03-.021A1.1,1.1,0,0,0,245.841,139.826Z" transform="translate(-209.76 -115.061)" fill="#4b4b4b"/>
    <path id="パス_1360" data-name="パス 1360" d="M9.146,15.459l-6.08-4.152H18.61V8.934H0V39.781H3.066l6.08,4.153V39.781H16.56V37.409H9.146Z" transform="translate(0 0)" fill="#4b4b4b"/>
  </g>
</svg>
