<svg xmlns="http://www.w3.org/2000/svg" width="20" height="15.859" viewBox="0 0 20 15.859">
  <g id="本棚の無料アイコン_1" data-name="本棚の無料アイコン 1" transform="translate(0 -53.003)">
    <path id="パス_3595" data-name="パス 3595" d="M3.71,55.756H1.191A1.191,1.191,0,0,0,0,56.947v13.37a1.19,1.19,0,0,0,1.191,1.19H3.71A1.19,1.19,0,0,0,4.9,70.317V56.947A1.191,1.191,0,0,0,3.71,55.756Zm.141,6.972H1.05v-.7h2.8Zm0-2.1H1.05v-1.4h2.8Z" transform="translate(0 -2.645)" fill="#ee8a8a"/>
    <path id="パス_3596" data-name="パス 3596" d="M147.084,55.756h-2.519a1.191,1.191,0,0,0-1.191,1.191v13.37a1.19,1.19,0,0,0,1.191,1.19h2.519a1.19,1.19,0,0,0,1.191-1.19V56.947A1.191,1.191,0,0,0,147.084,55.756Zm.14,6.972h-2.8v-.7h2.8Zm0-2.1h-2.8v-1.4h2.8Z" transform="translate(-137.773 -2.645)" fill="#ee8a8a"/>
    <path id="パス_3597" data-name="パス 3597" d="M289.994,66.492l-4.252-12.676a1.191,1.191,0,0,0-1.507-.75l-2.389.8a1.191,1.191,0,0,0-.75,1.508l4.252,12.676a1.191,1.191,0,0,0,1.507.75l2.389-.8A1.191,1.191,0,0,0,289.994,66.492Zm-7.177-9.29,2.655-.89.445,1.328-2.655.89Zm1.113,3.319-.223-.664,2.655-.89.222.664Z" transform="translate(-270.056)" fill="#ee8a8a"/>
  </g>
</svg>
