<svg id="k0353_0" xmlns="http://www.w3.org/2000/svg" width="15.968" height="24.51" viewBox="0 0 15.968 24.51">
  <path id="パス_3585" data-name="パス 3585" d="M4.4,17.088l-.031.038A9.27,9.27,0,0,1,2.252,13.9c-2.519-6.549.5-9.774,2.922-10.781,1.713-1.411,6.852-1.713,9.976.4s2.015,6.146,1.511,7.255H16.2a5.108,5.108,0,0,0-.236,2.116c.151.491.453.655.794,1.184.289.45.126.983-.453,1.008-.623.027-.831.6-.68.831s-.076.63-.3.705c.076.076.151.579-.227.655s-.547.6-.547.907-.346.841-1.663.756a13.1,13.1,0,0,1-2.664-.453c-.265-.076-.794,1.549-.718,2,.151.907,1.914,2.381,2.721,3.388,1.089,1.362,1.4,2.632,1.02,2.632S10.868,25.339,8.9,24.885s-6.348-1.713-6.537-2.7S4.633,18.9,4.482,17.807C4.442,17.518,4.417,17.289,4.4,17.088Z" transform="translate(-1.303 -2)" fill="#ee8a8a"/>
</svg>
