<svg xmlns="http://www.w3.org/2000/svg" width="24.498" height="24.904" viewBox="0 0 24.498 24.904">
  <g id="カレンダーのフリーアイコン6" transform="translate(-4.175)">
    <path id="パス_3613" data-name="パス 3613" d="M140.981,4.367A1.222,1.222,0,0,0,142.2,3.145V1.222a1.222,1.222,0,0,0-2.445,0V3.145A1.222,1.222,0,0,0,140.981,4.367Z" transform="translate(-128.988)" fill="#ee8a8a"/>
    <path id="パス_3614" data-name="パス 3614" d="M326.273,4.367a1.222,1.222,0,0,0,1.222-1.223V1.222a1.222,1.222,0,0,0-2.445,0V3.145A1.222,1.222,0,0,0,326.273,4.367Z" transform="translate(-305.267)" fill="#ee8a8a"/>
    <path id="パス_3615" data-name="パス 3615" d="M25.24,35.807H23.3v1.4a2.3,2.3,0,1,1-4.592,0v-1.4H14.288v1.4a2.3,2.3,0,1,1-4.592,0v-1.4H7.608A3.433,3.433,0,0,0,4.175,39.24v16.3a3.433,3.433,0,0,0,3.433,3.433H25.24a3.433,3.433,0,0,0,3.433-3.433V39.24A3.433,3.433,0,0,0,25.24,35.807ZM27,55.537A1.765,1.765,0,0,1,25.24,57.3H7.608a1.765,1.765,0,0,1-1.762-1.762V41.409H27Z" transform="translate(0 -34.065)" fill="#ee8a8a"/>
    <rect id="長方形_804" data-name="長方形 804" width="3.093" height="3.093" transform="translate(12.481 18.606)" fill="#ee8a8a"/>
    <rect id="長方形_805" data-name="長方形 805" width="3.093" height="3.093" transform="translate(12.481 13.812)" fill="#ee8a8a"/>
    <rect id="長方形_806" data-name="長方形 806" width="3.093" height="3.093" transform="translate(7.687 18.606)" fill="#ee8a8a"/>
    <rect id="長方形_807" data-name="長方形 807" width="3.093" height="3.093" transform="translate(7.687 13.812)" fill="#ee8a8a"/>
    <rect id="長方形_808" data-name="長方形 808" width="3.093" height="3.093" transform="translate(22.068 9.019)" fill="#ee8a8a"/>
    <rect id="長方形_809" data-name="長方形 809" width="3.093" height="3.093" transform="translate(17.274 9.019)" fill="#ee8a8a"/>
    <rect id="長方形_810" data-name="長方形 810" width="3.093" height="3.093" transform="translate(17.274 13.812)" fill="#ee8a8a"/>
    <rect id="長方形_811" data-name="長方形 811" width="3.093" height="3.093" transform="translate(22.068 13.812)" fill="#ee8a8a"/>
    <rect id="長方形_812" data-name="長方形 812" width="3.093" height="3.093" transform="translate(17.274 18.606)" fill="#ee8a8a"/>
    <rect id="長方形_813" data-name="長方形 813" width="3.093" height="3.093" transform="translate(12.481 9.019)" fill="#ee8a8a"/>
  </g>
</svg>
