<svg xmlns="http://www.w3.org/2000/svg" width="26.582" height="31.644" viewBox="0 0 26.582 31.644">
  <g id="ゴミ箱のフリーアイコン" transform="translate(-40.953)">
    <path id="パス_3590" data-name="パス 3590" d="M127.779,5.331a2.666,2.666,0,1,0-2.666-2.666A2.665,2.665,0,0,0,127.779,5.331Z" transform="translate(-78.958)" fill="#fff"/>
    <path id="パス_3591" data-name="パス 3591" d="M62.482,109.6v-.053a1.429,1.429,0,0,0-1.43-1.43H49.044c-2.894,0-5.463.965-6.1,4.173l-1.958,8.175a1.141,1.141,0,1,0,2.227.5l2.06-5.447.533,16.21a1.352,1.352,0,0,0,2.7,0l.538-9.667.537,9.667a1.353,1.353,0,0,0,2.705,0l.761-19.577,8.2-1.135A1.43,1.43,0,0,0,62.482,109.6Z" transform="translate(0 -101.439)" fill="#fff"/>
    <rect id="長方形_746" data-name="長方形 746" width="4.746" height="2.521" transform="matrix(-0.765, 0.644, -0.644, -0.765, 64.219, 14.643)" fill="#fff"/>
    <path id="パス_3592" data-name="パス 3592" d="M273.918,320.807l.809,10.325a1.635,1.635,0,0,0,1.63,1.492h7.3a1.636,1.636,0,0,0,1.63-1.492l.809-10.325Zm3.384,10.351a.482.482,0,0,1-.509-.452l-.458-7.557a.481.481,0,1,1,.961-.058l.457,7.557A.481.481,0,0,1,277.3,331.158Zm3.189-.481a.481.481,0,1,1-.962,0V323.12a.481.481,0,1,1,.962,0Zm2.736.029a.481.481,0,1,1-.96-.058l.457-7.557a.481.481,0,1,1,.96.058Z" transform="translate(-218.566 -300.98)" fill="#fff"/>
  </g>
</svg>
