<svg xmlns="http://www.w3.org/2000/svg" width="25.572" height="30" viewBox="0 0 25.572 30">
  <g id="ログインアイコン3" transform="translate(-37.79)">
    <path id="パス_3598" data-name="パス 3598" d="M155.81,0V10.189h1.958V1.958h13.8l-4.387,2.968a1.8,1.8,0,0,0-.793,1.494V23.192h-8.624V16.528H155.81V25.15h10.582v4.156a.694.694,0,0,0,1.083.575l6.991-4.731V0Z" transform="translate(-111.105)" fill="#4b4b4b"/>
    <path id="パス_3599" data-name="パス 3599" d="M48.974,168.413a.277.277,0,0,0,.457.212L54,164.756l-4.573-3.869a.277.277,0,0,0-.457.212v1.957H37.79v3.4H48.974v1.956Z" transform="translate(0 -151.397)" fill="#4b4b4b"/>
  </g>
</svg>
