<svg xmlns="http://www.w3.org/2000/svg" xmlns:xlink="http://www.w3.org/1999/xlink" width="42" height="40" viewBox="0 0 42 40">
  <defs>
    <clipPath id="clip-path">
      <rect id="長方形_692" data-name="長方形 692" width="42" height="40" transform="translate(13 333)" fill="#fff" stroke="#707070" stroke-width="1"/>
    </clipPath>
  </defs>
  <g id="マスクグループ_247" data-name="マスクグループ 247" transform="translate(-13 -333)" clip-path="url(#clip-path)">
    <g id="k0015_1" transform="translate(16 334.948)" opacity="0.3">
      <path id="パス_3566" data-name="パス 3566" d="M443.6,323.192a.472.472,0,0,0-.649-.009.39.39,0,0,0-.042.453.429.429,0,0,0,.028.042l-10.294-.369v-.037l-.407-.014v.028l-.251-.282-2.405-.264.387.517-.005.151-.423.485,2.418-.09.27-.264v.029l.408.014v-.042l10.329.371a.437.437,0,0,0-.068.074.391.391,0,0,0,.009.455.472.472,0,0,0,.648.039c.317-.2.532-.507.792-.615C444.093,323.737,443.9,323.411,443.6,323.192Z" transform="translate(-410.357 -307.897)"/>
      <path id="パス_3567" data-name="パス 3567" d="M570.756,148.98c-.187-.086-.062-.471-.022-.631h0c0-.005,0-.012,0-.02l0-.02h0c.019-.163.039-.567.245-.581.165-.011.225-.188.251-.329a5.093,5.093,0,0,0-1.084-3.726,8.67,8.67,0,0,1-1.567-2.731c-.378-.992.759-1.07.8-.545,0,.045-.45.054-.139.52a.4.4,0,0,0,.673-.429,1.069,1.069,0,0,0-1.352-.614c-.723.312-.547,1.225.711,3.24,1.619,2.595,1.1,2.749,1,4.337a.768.768,0,0,0,.147.236c.072.055-.078.57-.078.57s-.044.535-.13.561a.784.784,0,0,0-.221.167c-.476,1.519-.041,1.85-2.479,3.7-1.894,1.435-2.382,2.224-1.819,2.775a1.069,1.069,0,0,0,1.482-.093.4.4,0,0,0-.476-.64c-.458.324-.037.494-.056.536-.223.476-1.257,0-.55-.794a8.664,8.664,0,0,1,2.437-1.993,5.092,5.092,0,0,0,2.341-3.1C570.9,149.236,570.906,149.05,570.756,148.98Z" transform="translate(-540.831 -132.313)"/>
      <path id="パス_3568" data-name="パス 3568" d="M369.152,2.076c-1.908-.232-3.49-.132-3.533.225s1.468.833,3.377,1.065,3.49.131,3.533-.225S371.06,2.308,369.152,2.076Zm.069.776a8.435,8.435,0,0,1-2.685-.554,8.423,8.423,0,0,1,2.74.1,8.447,8.447,0,0,1,2.685.555A8.44,8.44,0,0,1,369.221,2.852Z" transform="translate(-349.005 0)"/>
      <path id="パス_3569" data-name="パス 3569" d="M114.695,36.216c-.669-.824-2.563-1.953-2.956-3.485s.078-2.357-.516-2.93-1.863-.781-3.892-2.15-2.095-2.1-2.239-2.564-.664-.623-.879-.093a2.077,2.077,0,0,0,.488,2.072c-.38-.057-.661.794.636,1.86-.439-.046-.609,1.094.784,1.65-.369,0-1.234.341.611,1.372-.26-.078-.915.408.348.925-.208.222-.313.671.685.742.313.376.246.7.805.721,0,0-.077.26.482.285a17.788,17.788,0,0,1,4.641,2.2C114.347,37.387,115.089,36.7,114.695,36.216Z" transform="translate(-98.002 -21.797)"/>
      <path id="パス_3570" data-name="パス 3570" d="M385.6,259.308c.642-.3,2.109-.422,2.793-1.227s.643-1.437,1.167-1.607,1.347.076,2.965-.151,1.871-.645,2.094-.884.581-.179.554.2a1.387,1.387,0,0,1-.9,1.1c.245.077.164.671-.926.93.277.1.045.834-.953.76.221.111.641.566-.768.644.179.03.429.512-.479.453.06.194-.009.495-.629.244-.3.135-.352.347-.694.2,0,0-.03.178-.373.03a11.906,11.906,0,0,0-3.429-.036C385.47,260.113,385.224,259.484,385.6,259.308Z" transform="translate(-368.013 -243.166)"/>
      <path id="パス_3571" data-name="パス 3571" d="M31.527,57.561c-.03-.213-.425-.122-.607-.122s-.741.007-.741.007a4.741,4.741,0,0,1-.763-.032c-.338-.066-.15-.31-.057-.4a.75.75,0,0,0,.127-.338s.467-.334.378-.675-.395-.56-.647-.069-.127.338-.252.492a1.558,1.558,0,0,0-.282.4c-.064.153-.493-.1-.87.514a.838.838,0,0,0-.437.458c-.309,0-1.474-.573-2.279-.366a2.6,2.6,0,0,1-1.574.012c-.184-.095-1.357-.016-1.818-.145a4.935,4.935,0,0,1-.821-.43.608.608,0,0,0,.1-.18c2.023-.7,1.665-2.907,1.717-3.29.015-.11.038-.243.065-.381a1.044,1.044,0,0,0,.65-.623.982.982,0,0,0,1.062-.435c.269-.382-.373.065-.812-.23.332-.062.38-.593.328-.752.3.021.861-.949.163-1.349a.9.9,0,0,0-.359-.99c.057-.41.265-1.072-.644-1.5a1,1,0,0,0-1.357-.844,1.326,1.326,0,0,0-2.082-.389c-.219-.148-.829-.473-1.212.08-.4-.339-1.485-.875-1.818.444,0,0-.311-.263-.535.157-.2.176-.465-.05-.445-.376s-.446.232-.25.666a.915.915,0,0,0-.688,1.019c-.07.207-.807.5-.495,1.412-.148.294-.456.72-.006,1.177-.151.253-.292.668-.506.6s.027.4.358.341c0,0-.067.248.228.269.058.24-.292.669-.373.714s.322.425.593.083c.044.038-.021.326.188.312a1.835,1.835,0,0,0,.21-.04,4.053,4.053,0,0,0,.433,1.653.526.526,0,0,1,0,.124,6.119,6.119,0,0,0-.649.283s-1.489-.214-1.738-.213a2.742,2.742,0,0,0-2.062-.077c-1.124.455-1.524,1.221-.843,2.16a4.243,4.243,0,0,0,1.158.274,8.59,8.59,0,0,0,1.467.621,6.894,6.894,0,0,0-.673,1.079,5.96,5.96,0,0,0-.936.914,3.975,3.975,0,0,0-1.005,1.593,4.055,4.055,0,0,0-2.6.339S6.6,61.191,5.846,62.6a7.68,7.68,0,0,0-1.02,2.888A3.085,3.085,0,0,0,4.5,66.966a5.733,5.733,0,0,0-1.364.539.979.979,0,0,0-.4-.035s-.274-.342-.46-.252a.362.362,0,0,0-.252.46c.092.094-.1.275.15.433-.033.184-.128.338.118.465a.355.355,0,0,0,.18.465c-.063.092-.312.3.367.252a13.72,13.72,0,0,0,1.574-.044c.68-.115.891.256,1.633.142s.99-.266,1-.914a8.706,8.706,0,0,0,.289-.953,10.476,10.476,0,0,0,.611-2.152,4.069,4.069,0,0,0,.683-.332,13.881,13.881,0,0,0,3.149-.18,3.785,3.785,0,0,0,.707.224,6.327,6.327,0,0,0-1.446,2.328,2.478,2.478,0,0,0-.729,1.688,3.244,3.244,0,0,0-.883,1.657,1.213,1.213,0,0,0-.379.735,1.872,1.872,0,0,0-1.119.7,2.137,2.137,0,0,0-.779.608,3.223,3.223,0,0,0-.28.245.545.545,0,0,0-.525.055c-.28.183-.44.674.3.836a.752.752,0,0,0,.415-.058.377.377,0,0,0-.2.277c0,.185.3.466.708.162a.329.329,0,0,0,.334.467c.228-.017.3-.081.33-.129a.3.3,0,0,0,.223.321c.307.127.435-.211.435-.211s-.034.215.305.22.375-.366.562-.518,1.216-1.066,1.527-1.309a.813.813,0,0,0,.315-.582,3.407,3.407,0,0,0,.347-.675c.188-.183,1.276-.942,1.318-1.9.215.033.559-.333.591-.425s1.984-.841,2.675-1.914c.493.1,1.118-.573,1.213-.818a5.18,5.18,0,0,0,1.487-3.223,7.506,7.506,0,0,0,.2-1.108,21.369,21.369,0,0,1,.948-1.932,2.029,2.029,0,0,0,.807-.484,4.086,4.086,0,0,0,1.7.05,2.445,2.445,0,0,0,.986.1c.244.156,2.71.371,3.613-.329a2.311,2.311,0,0,0,.989-.173,2.441,2.441,0,0,0,1.174-.019c.2-.079.251-.1.281-.377a.446.446,0,0,0,.152-.577.446.446,0,0,0,.273-.576l.425-.121C31.436,58.137,31.558,57.773,31.527,57.561Z" transform="translate(0 -41.847)"/>
      <path id="パス_3572" data-name="パス 3572" d="M492.56,161.463l6.019-5.922.085.087-6.02,5.922Z" transform="translate(-470.847 -147.418)"/>
      <path id="パス_3573" data-name="パス 3573" d="M482.6,318.607l.108-.056L486.6,326l-.108.057Z" transform="translate(-461.287 -303.877)"/>
    </g>
  </g>
</svg>
