<svg id="k0595_2" xmlns="http://www.w3.org/2000/svg" width="14.005" height="30.422" viewBox="0 0 14.005 30.422">
  <path id="パス_439" data-name="パス 439" d="M176.2,500.806a.292.292,0,1,1-.291-.305A.3.3,0,0,1,176.2,500.806Z" transform="translate(-168.914 -481.568)" fill="#ee8a8a"/>
  <path id="パス_440" data-name="パス 440" d="M176.2,522.017a.292.292,0,1,1-.291-.305A.3.3,0,0,1,176.2,522.017Z" transform="translate(-168.914 -501.973)" fill="#ee8a8a"/>
  <path id="パス_441" data-name="パス 441" d="M176.2,543.228a.292.292,0,1,1-.291-.305A.3.3,0,0,1,176.2,543.228Z" transform="translate(-168.914 -522.379)" fill="#ee8a8a"/>
  <path id="パス_442" data-name="パス 442" d="M176.2,564.439a.292.292,0,1,1-.291-.305A.3.3,0,0,1,176.2,564.439Z" transform="translate(-168.914 -542.784)" fill="#ee8a8a"/>
  <path id="パス_443" data-name="パス 443" d="M176.2,585.662a.292.292,0,1,1-.291-.306A.3.3,0,0,1,176.2,585.662Z" transform="translate(-168.914 -563.2)" fill="#ee8a8a"/>
  <path id="パス_444" data-name="パス 444" d="M176.2,606.863a.292.292,0,1,1-.291-.306A.3.3,0,0,1,176.2,606.863Z" transform="translate(-168.914 -583.596)" fill="#ee8a8a"/>
  <path id="パス_445" data-name="パス 445" d="M11.663,14.094c.061-.069.143-.161.242-.27.9-1,3.007-3.326,3.007-5.079V3.731C14.913,2.679,14.336,2,13.444,2H2.377C1.485,2,.908,2.679.908,3.731V8.745c0,1.753,2.107,4.084,3.006,5.079.1.11.183.2.243.27.133.153.324.344.544.564.686.687,1.835,1.837,1.835,2.552S5.388,19.076,4.7,19.763c-.221.221-.412.412-.545.566-.06.068-.142.159-.24.268-.9.995-3.009,3.326-3.009,5.081v5.014c0,1.051.577,1.731,1.469,1.731H13.444c.892,0,1.468-.679,1.468-1.731V25.678c0-1.755-2.108-4.086-3.009-5.081-.1-.109-.181-.2-.241-.268-.133-.154-.324-.345-.545-.566-.686-.687-1.834-1.836-1.834-2.552s1.149-1.865,1.835-2.552C11.34,14.438,11.531,14.247,11.663,14.094Zm-.319,6.5c.573.658,3.149,3.292,3.149,5.08v5.014c0,.659-.286,1.317-1.049,1.317H2.377c-.763,0-1.049-.658-1.049-1.317V25.678c0-1.787,2.576-4.422,3.149-5.08s2.48-2.258,2.48-3.387-1.908-2.728-2.48-3.386-3.149-3.292-3.149-5.08V3.731c0-.659.286-1.317,1.049-1.317H13.444c.763,0,1.049.658,1.049,1.317V8.745c0,1.787-2.576,4.421-3.149,5.08s-2.48,2.258-2.48,3.386S10.772,19.939,11.344,20.6Z" transform="translate(-0.908 -2)" fill="#ee8a8a"/>
  <path id="パス_446" data-name="パス 446" d="M51.052,236.76c0,.542.191.542.191.542s.192,0,.192-.542v-2.577a8.947,8.947,0,0,1,.293-2.2,11.282,11.282,0,0,1,1.824-4.086c.187-.3.349-.564.451-.753.055-.1.132-.241.225-.407a33.488,33.488,0,0,0,1.61-3.193c-.775.29-2.342.4-4.7-.487a4.659,4.659,0,0,0-4.585.359,32.782,32.782,0,0,0,1.664,3.321c.093.166.17.3.225.407.1.189.264.45.451.753a12.191,12.191,0,0,1,1.786,3.835,8.312,8.312,0,0,1,.374,2.447Z" transform="translate(-44.232 -216.082)" fill="#ee8a8a"/>
  <path id="パス_447" data-name="パス 447" d="M33.38,632.319c-1.4-1.25-4.113-3.747-4.954-3.747s-3.551,2.5-4.953,3.747a4.772,4.772,0,0,0-.9,1.11v1.985c0,.487.078,1.3.6,1.3h10.6c.524,0,.6-.816.6-1.3v-1.824A4.843,4.843,0,0,0,33.38,632.319Z" transform="translate(-21.469 -607.487)" fill="#ee8a8a"/>
</svg>
