<svg xmlns="http://www.w3.org/2000/svg" xmlns:xlink="http://www.w3.org/1999/xlink" width="51" height="50" viewBox="0 0 51 50">
  <defs>
    <clipPath id="clip-path">
      <rect id="長方形_631" data-name="長方形 631" width="51" height="50" transform="translate(6520 15593)" fill="#fff" stroke="#707070" stroke-width="1"/>
    </clipPath>
  </defs>
  <g id="マスクグループ_235" data-name="マスクグループ 235" transform="translate(-6520 -15593)" clip-path="url(#clip-path)">
    <g id="k0733_0" transform="translate(6522.852 15593.409)" opacity="0.3">
      <path id="パス_3502" data-name="パス 3502" d="M44.553,46.11a5.631,5.631,0,0,1-.626-2.475l-.744,1.231-.167-.138a7.813,7.813,0,0,1-2.134-3.872c-.777-2.651-2.276-3.622-3.072-4.689.053-.514.085-2.026.106-3.756,1.519-.6,2.455-1.272,2.373-1.526a8.507,8.507,0,0,0-1.246-2.333,11.093,11.093,0,0,0,1.785-.255l1.078.647c4.743.647,5.175-2.8,5.175-2.8s-1.886.484-7.492-6.2-10.025-5.983-10.025-5.983l-1.778-1.051-1.091-.4v-.075a3.467,3.467,0,0,0,1.793.345,2.968,2.968,0,0,1-.907-.888,1.678,1.678,0,0,0,1.392.187,3.519,3.519,0,0,1-1.443-1.329.994.994,0,0,0,.579-.219,3.086,3.086,0,0,1-.89-.985h.567l-.726-.717a1.262,1.262,0,0,0,.835-.749c.278-.835.215-1.368-.489-1.752a1.969,1.969,0,0,0-.09-.3c.264-.106.485-.191.607-.231.576.246.823,0,.823-.411.658.411.822-.165,1.068-.658,1.151.575,1.069,0,1.234-.658,1.645.987,2.8-.247,1.645-.741,2.3.741,3.864-1.069,1.233-1.315C32.193,1.847,29,4,27.023,5.488A3.2,3.2,0,0,0,24.712,4.2a6.473,6.473,0,0,0-3.719.593s.253.112.655.285A4.339,4.339,0,0,1,19.8,4.366c-.74-.74-1.038-1.719-1.449-1.143-.364.509.682,2.143,2.181,3.485a9.48,9.48,0,0,0-.675,1.148,2.778,2.778,0,0,0,.054.768s-.862.7-1.078.915-.592,1.078-.377,1.24.916-.27.97-.054a2.66,2.66,0,0,1-.054.754.355.355,0,0,0,.179.351l-2.205.619-.53-.224-.915.4-.865.243-.091.025c-.07-.523-.695-.278-.673.146-.44-.3-.717-.277-.949-.059s-.561-.31-.879-.111-.786-.906-1.11-1.072-.707-.073-.4.542a9.036,9.036,0,0,0,.989,1.32,10.8,10.8,0,0,1-2.67.428l-.937.263s-4.25,1.154-5.98-.109l-.533.149.729,2.6.729,2.6.533-.15c1.035-2.041,5.049-3.207,5.049-3.207l.937-.264A13.148,13.148,0,0,1,12.694,14.8a1.657,1.657,0,0,0,.468.855c.456.377.92,1.714,1.272,2.067a30.77,30.77,0,0,1,1.851,4.055c.441,1.058.97,1.5,3.263.705a42.664,42.664,0,0,0,5.17-2.469l3.5,7.072-.378,1.079L24.55,30.668a8.307,8.307,0,0,0,.966.745c-1.443,1.231-2.793,2.363-3.147,2.6-.842.561-1.544,2.946-1.684,3.367-.107.32-2.088,6.589-3.025,9.554a5.856,5.856,0,0,0-.641-1.4c-.613.223-.554,2.284-.554,2.284a11.859,11.859,0,0,1-3.025,1.862,1.945,1.945,0,0,1-1.909-1.31c-.012-.412.311-1.341.762-1.1s.156,1.011.515.826.243-.943.243-.943-.636-.6-1.141-.523-.947.74-1.109,1.205a3.256,3.256,0,0,0,.284,2.181,3.763,3.763,0,0,0,2.467,1.405c1.368.151,3.178-.36,3.9-.237s2.363.568,2.578.276l.214-.292a3.506,3.506,0,0,0-.256-2.341,1.372,1.372,0,0,1,.039-.5l.1,0,.036-.434a9.464,9.464,0,0,1,.723-1.448l-.626.278.007-.081a22.1,22.1,0,0,1,2.947-5.052c1.731-2.151,2.058-4.724,2.479-5.987.639-.355,2.549-1.406,4.28-2.357a12.1,12.1,0,0,0,1.911.224,14.073,14.073,0,0,0,1.57-.036,36.162,36.162,0,0,1,1.157,4.547c-.021,1.012,1.536,2.95,1.8,3.306.161.216,2.462,2.754,4.247,4.717a7.371,7.371,0,0,1-.988-.057c.89.809,1.42,1.341,1.42,1.341s-.85,2.424-1.62,2.973a1.947,1.947,0,0,1-2.285-.372c-.186-.368-.29-1.346.221-1.32s.571.848.818.528-.182-.957-.182-.957-.831-.271-1.255.014a1.831,1.831,0,0,0-.49,1.562,3.253,3.253,0,0,0,1.186,1.853,3.766,3.766,0,0,0,2.83.221c1.3-.446,2.723-1.679,3.424-1.874s2.17-.137,2.24-.493a2.637,2.637,0,0,1,.279-.71S45.522,46.459,44.553,46.11Zm-20.977-31.1a4.607,4.607,0,0,0-1.676.681c-1.058.793-.881,1.411-1.41,1.851s-2.351,1.5-2.351,1.5a7.774,7.774,0,0,0-1.587-1.852,2.642,2.642,0,0,1-.937-1.966s-.216-.59-.4-1.2l.143-.04.9-.113.952-.267.335-.468,2.134-.6a1.644,1.644,0,0,0,.074.393c.054.269-.053.593.539.7s1.151-.694,1.994-.485c.485.121.526.97,1.456,1.5Z" transform="translate(-1.812 -2)" fill="#040000"/>
    </g>
  </g>
</svg>
