<svg xmlns="http://www.w3.org/2000/svg" xmlns:xlink="http://www.w3.org/1999/xlink" width="325.799" height="83.929" viewBox="0 0 325.799 83.929">
  <defs>
    <clipPath id="clip-path">
      <rect id="長方形_707" data-name="長方形 707" width="90.047" height="68.085" transform="translate(0 0)" fill="#fff" stroke="#707070" stroke-width="1"/>
    </clipPath>
  </defs>
  <g id="グループ_571" data-name="グループ 571" transform="translate(-51.1 -629)">
    <g id="k0086_6" transform="translate(121.205 629)" opacity="0.3">
      <path id="パス_479" data-name="パス 479" d="M256.818,53.249c.682-.5-.364-1.65-2.553-1.96.514-.728-.506-2.073-2.948-2.023.484-.528.232-1.567-1.726-2.044s-5,.885-6.616.856-6.839-1.776-10.214-2.258-5.6,3.6-6.37,4.689c-.46.654-3.876,2.035-6.535,3.037-.427-.917-.853-1.516-1.2-1.516-1.421,0-34.295,11-34.295,11,1-3.164-4.439-17.737-5.841-21.5s-2.338-16.741-2.718-20.476-.892-13.178-.056-15.018,2.17-4.993.6-5.341-2.533,2.072-4.167,2.924S166.969,12,165.763,14.564s-5.521,3.438-4.091,6.19,3.732,3.466,5.015,4.156,1.872,6.306.828,12.555c-2.222,13.293,2.19,23.785.585,25.369s-18.865-2.57-26.092-7.517-17.364-3.562-21.573-1.148c-4.593,2.632-5.671,6.971-14.458,4.512-3.45-.966-13.662-9.763-19.952-14.96-.136-2.562-2.719-5.291-5.341-7.393-3.744-3-7.185-4.242-8.379-8.257C68.419,15.012,58.756,10.711,47.314,15.31c-4.718,1.528-9.807,7.463-10,11.868-.383,8.73,6.458,8.77,6.458,8.77.987,1.481,2.032,2.686,1.967,4.379-.06,1.612-.071,2.756,1.456,2.354s2.219-.258,2.542.589.274.764,1.214.741a1.5,1.5,0,0,0,1.279-.592,1.618,1.618,0,0,1-.645,1.006c-.611.515.19.821.857.742,0,0,1.711,2.575,3.589,1.794,2.355-.978,3.828-3.431,5.206-3.861a11.987,11.987,0,0,0,.425,6.084c1.021,3.348,1.337,6.884,2.03,9.968.07,1.216.141,2.484.2,3.75-1.613,4.611-3.685,9.965-4.491,9.622C58,71.932,46.16,61.25,44.553,60.46s-5.216-1.781-6.624-1.584-7.024,4.947-8.431,5.144-1.6,2.57.4,2.176,7.828-2.77,8.431-1.979-.2,2.176-.8,2.574-1.008,2.175.6,1.779,1.575-1.686,4.014-1.582c3.734.159,6.807,4.2,9.442,7.726-.794-.006-1.391-.011-1.666-.011-1.5,0-16.259-1.928-17.612-1.781-1.073.119-4.607,2.006-6.923,3.005a134.911,134.911,0,0,0-18.167-3.4C6.415,72.526,2,80.24,2,80.24l31.314,4.353L35.03,79.98a9.506,9.506,0,0,0,4.353-.382c2.86-.741,12.645,2.077,15.5,2.374s18.97,2.819,19.873-1.334a77.233,77.233,0,0,0,.764-10.45,25.394,25.394,0,0,1,7.014,4.119c4.215,3.956,23.134,9.1,34.375,7.32s31.915,0,44.762.593,27.1-1.187,29.906-3.363,29.573-14.877,30.343-15.966a2.619,2.619,0,0,0,.106-1.4c3.2-1.367,6.817-3.062,7.924-3.477,1.931-.723,19.963-3.346,20.985-3.4s2.239,1.319,4.028,1.574S258.948,53.954,256.818,53.249Z" transform="translate(-2 -0.664)" fill="#040000"/>
    </g>
    <g id="マスクグループ_251" data-name="マスクグループ 251" transform="translate(51.1 644.374)" clip-path="url(#clip-path)">
      <g id="k0130_7" transform="translate(6.586 6.527)" opacity="0.3">
        <path id="パス_3581" data-name="パス 3581" d="M2.229,49.138c1.4-4.241,6.02-5.15,7.959-5.143a6.516,6.516,0,0,1,3.231.471c.83.373-.1,2.217-3.24,2.3s-6.563,2.38-4.17,4.7c1.619,1.566,5.141,1.112,7.8.428a16.931,16.931,0,0,1,1.556-8.061,42.547,42.547,0,0,1,10.754-12.8c4.259-3.218,3.99-6.082,3.348-7.193a44.327,44.327,0,0,1-2.654-7.673c-.18-1.293-1.544-8.13-.339-9.328s2.4.469,3.781,1.492S32.277,9.9,32.831,9.808a7.588,7.588,0,0,0,2.685-2.115,49.122,49.122,0,0,0,.942-5.167c.1-1.108.833-.645,1.108-.089.147.3,1.646,4.344,2.754,4.625,1,.254,1.016,0,2.123.654a31.67,31.67,0,0,1,3.5,3.15c.553.463,2.308.469,2.859,1.027a2.33,2.33,0,0,1,.549,1.478c.278.093,1.379,2.221.452,3.233-.373,1.108-.191,1.939-.377,2.309s1.837,3.423,3.129,3.982,4.783,1.858,5.523,1.306,2.175-9.894,3.472-10.907,4.252-3,7.2-2.248,5.621,3.435,4.045,5.277a6.542,6.542,0,0,1-2.587.638c-.833.091-2.587.177-2.587.177s-2.306-.376-2.4.915-.286,2.758-1.042,7.188-2.147,7.566-5.659,8.847-7.025,1.547-7.025,1.824-1.786,9.6-1.792,11.168,5.787,10,6.431,10.742a51.844,51.844,0,0,0,4.235,3.236c.828.65,4.054,2.508,3.865,3.984.18,1.665-.561,2.122-1.854,2.12-.833,1.012-2.77.543-3.141.451s-1.478.364-2.216-.007-5.244-5.089-6.073-5.83-8.657-7.609-9.3-9.459-1.1-1.48-1.937-.283-4.173,5.159-3.805,5.623,4.15,1.858,5.256,2.231,1.473,1.483,1.287,1.853c1.013.833.641,1.57.271,2.309a2.429,2.429,0,0,1-2.035,1.1c-.926.275-1.665.733-2.4.271s-1.1-1.757-2.764-2.135-7.1-2.515-8.675-2.152-7.938-.673-10.792-2.9A4.574,4.574,0,0,1,14.8,56.565a32.427,32.427,0,0,1-4.557.079C6.177,56.448.831,53.383,2.229,49.138Z" transform="translate(-2.002 -1.85)"/>
      </g>
    </g>
  </g>
</svg>
