<svg xmlns="http://www.w3.org/2000/svg" width="24.309" height="25" viewBox="0 0 24.309 25">
  <g id="k0938_0" transform="translate(-1.946 -2)" opacity="0.3">
    <g id="グループ_579" data-name="グループ 579" transform="translate(13.883 3.82)">
      <path id="パス_3607" data-name="パス 3607" d="M562.6,61.063a2.727,2.727,0,0,1,.207.733,1.468,1.468,0,0,0,.169.921c.226.451.263.7.432.7a.457.457,0,0,1-.123.376c.075.019.577.39.629.39s.984-.8.984-.8h0c-.045-.11-.184-.461-.136-.492s.075-.432.132-.47c.113,0,.263-.3.267-.639s-.116-.282-.116-.282a1.485,1.485,0,0,0,.113-.432.672.672,0,0,0-.658-.79,1.063,1.063,0,0,0-1.372-.154c-.351.155-.531.477-.682.3A.431.431,0,0,0,562.6,61.063Z" transform="translate(-556.704 -59.941)"/>
      <path id="パス_3608" data-name="パス 3608" d="M394.392,191.971c-.1-.272-1.643-5.657-1.643-5.657l-.654-3.878s.333-.306.574-.582a3.6,3.6,0,0,0,.265-.447c.02-.038.143.1.167.065a11.253,11.253,0,0,0,1.292-3.209,37.335,37.335,0,0,0-1.953-3.474.8.8,0,0,0-.421-.306c-.086,0-1.043-.383-1.517-.575a.6.6,0,0,0-.108.233c-.066.25-.2,2-.2,2.371,0,.307-.251,3.222.184,4.151a3.222,3.222,0,0,0,.322.385l-2.7.24s-.087-3.938-.173-4.372a5.144,5.144,0,0,1,.525-2.2,2.716,2.716,0,0,1,.229-.517c-.283.159-1.731.749-1.839.858s-2.029,2.3-2.412,2.3c0,0-2.136.395-2.251.395s.02,1.258.02,1.258c.51-.044,2.422-.374,2.652-.451s2.247-1.513,2.247-1.513-.009,2.632-.052,3.355c-.037.608-.333,2.131-.288,2.229l.484-.082-.538,5.056s-.668,3.506-.819,4.084a.062.062,0,0,0,.056.077,6.622,6.622,0,0,0,1.613-.013c0-.121,1.006-4.371,1.006-4.522a25.974,25.974,0,0,1,1-3.373c.121,0,1.331,2.909,1.664,3.484a41.191,41.191,0,0,1,1.6,4.568C392.84,192.455,394.492,192.243,394.392,191.971Zm-2.42-11.388c-.064-.393-.175-1.194-.205-1.48-.034-.318.116-2.209.135-2.468a12.035,12.035,0,0,1,1.331,1.689c-.007.428-.547,2.272-.881,2.393s-.208.1-.238.014C392.108,180.712,391.989,180.687,391.972,180.582Z" transform="translate(-382.025 -170.329)"/>
    </g>
    <rect id="長方形_802" data-name="長方形 802" width="0.343" height="24.146" transform="translate(12.092 2.664)"/>
    <path id="パス_3609" data-name="パス 3609" d="M454.571,736.014a1.6,1.6,0,0,1,.076,1.233,5.914,5.914,0,0,1-1.038.1c-.177.02-.981.127-1.356.166-.467.048-.7.089-.743-.067s.137-.407.432-.466a1.635,1.635,0,0,0,.549-.24,7.519,7.519,0,0,0,1.118-.726C453.708,735.857,454.571,736.014,454.571,736.014Z" transform="translate(-435.44 -710.893)"/>
    <path id="パス_3610" data-name="パス 3610" d="M728.319,744.089a2.487,2.487,0,0,1-.2.922c-.118.177-.039.314.471.294s.883-.02.961-.275-.059-.53-.157-.942-.2-.49-.451-.49S728.33,743.758,728.319,744.089Z" transform="translate(-703.323 -718.308)"/>
    <path id="パス_3611" data-name="パス 3611" d="M12.435,2a46.807,46.807,0,0,1-5.069.489c-1.792,0-3.807-.358-5.419-.179v8.151s7.635.761,10.245-.4Z"/>
    <path id="パス_3612" data-name="パス 3612" d="M316.657,300.159c-.141.018-.348.07-.348.07a.975.975,0,0,0-.419-.165c-.239-.03-.86-.12-.759.082,0,0-.348.037-.318.187a.279.279,0,0,0,.1.192.267.267,0,0,0,.06.227c-.045.135-.094.249.03.312,0,.227.2.272.295.347a1.562,1.562,0,0,0,.872-.15c.135-.1.165-.17.224-.2a2.623,2.623,0,0,1,.3-.07C316.678,300.8,316.663,300.357,316.657,300.159Z" transform="translate(-303.039 -288.659)"/>
  </g>
</svg>
