<svg xmlns="http://www.w3.org/2000/svg" width="23" height="23" viewBox="0 0 23 23">
  <g id="鉛筆のアイコン素材" transform="translate(-0.001 0)" opacity="0.3">
    <path id="パス_3601" data-name="パス 3601" d="M22.755,3.965,19.035.246a.839.839,0,0,0-1.186,0l-15.7,15.08a.839.839,0,0,0-.209.349l-1.9,6.24a.839.839,0,0,0,1.047,1.047L7.526,21h0L22.755,5.152A.839.839,0,0,0,22.755,3.965ZM2.854,20.892l-.745-.745,1.095-3.6,2.111,1.136L6.452,19.8ZM20.394,3.371,7.016,16.834l-.85-.85L19.63,2.606l.764.764Z" transform="translate(0 0)"/>
  </g>
</svg>
